<svg width="28" height="30" viewBox="0 0 28 30" fill="none" xmlns="http://www.w3.org/2000/svg">
<path d="M27.0475 7.565C26.8169 7.23603 26.5104 6.96748 26.154 6.78209C25.7976 6.5967 25.4017 6.49994 25 6.5H15.5V3.5H17C17.3978 3.5 17.7793 3.34196 18.0606 3.06066C18.342 2.77936 18.5 2.39782 18.5 2C18.5 1.60218 18.342 1.22064 18.0606 0.93934C17.7793 0.658035 17.3978 0.5 17 0.5H11C10.6022 0.5 10.2206 0.658035 9.93933 0.93934C9.65803 1.22064 9.49999 1.60218 9.49999 2C9.49999 2.39782 9.65803 2.77936 9.93933 3.06066C10.2206 3.34196 10.6022 3.5 11 3.5H12.5V6.5H2.99999C2.59818 6.49995 2.20228 6.59676 1.84583 6.78221C1.48938 6.96767 1.18288 7.2363 0.952297 7.56537C0.721718 7.89444 0.573852 8.27423 0.521228 8.67258C0.468605 9.07093 0.512773 9.4761 0.649991 9.85375L3.92374 18.8538C4.09989 19.3354 4.41951 19.7515 4.83949 20.0459C5.25948 20.3402 5.75962 20.4987 6.27249 20.5H9.49999V28C9.49999 28.3978 9.65803 28.7794 9.93933 29.0607C10.2206 29.342 10.6022 29.5 11 29.5C11.3978 29.5 11.7793 29.342 12.0607 29.0607C12.342 28.7794 12.5 28.3978 12.5 28V20.5H15.5V28C15.5 28.3978 15.658 28.7794 15.9393 29.0607C16.2206 29.342 16.6022 29.5 17 29.5C17.3978 29.5 17.7793 29.342 18.0606 29.0607C18.342 28.7794 18.5 28.3978 18.5 28V20.5H21.7275C22.2404 20.4987 22.7405 20.3402 23.1605 20.0459C23.5805 19.7515 23.9001 19.3354 24.0762 18.8538L27.35 9.85375C27.4872 9.47603 27.5314 9.07079 27.4788 8.67237C27.4261 8.27395 27.2782 7.89409 27.0475 7.565ZM12.25 17.5L10.7975 9.5H17.2025L15.75 17.5H12.25ZM3.71374 9.5H7.74999L9.20499 17.5H6.62499L3.71374 9.5ZM21.375 17.5H18.7975L20.25 9.5H24.2837L21.375 17.5Z" fill="white" fill-opacity="0.5"/>
</svg>
