<svg width="40" height="34" viewBox="0 0 40 34" fill="none" xmlns="http://www.w3.org/2000/svg">
<path d="M38.8457 18.6582L24.7832 32.7207C24.3429 33.161 23.7457 33.4084 23.123 33.4084C22.5004 33.4084 21.9032 33.161 21.4629 32.7207C21.0226 32.2804 20.7752 31.6833 20.7752 31.0606C20.7752 30.4379 21.0226 29.8407 21.4629 29.4004L31.5234 19.3438H2.8125C2.1909 19.3438 1.59476 19.0969 1.15522 18.6573C0.71568 18.2178 0.46875 17.6216 0.46875 17C0.46875 16.3784 0.71568 15.7823 1.15522 15.3428C1.59476 14.9032 2.1909 14.6563 2.8125 14.6563H31.5234L21.4668 4.59379C21.0265 4.15349 20.7791 3.55631 20.7791 2.93363C20.7791 2.31095 21.0265 1.71378 21.4668 1.27347C21.9071 0.833173 22.5043 0.585815 23.127 0.585815C23.7496 0.585815 24.3468 0.833173 24.7871 1.27347L38.8496 15.336C39.0681 15.554 39.2415 15.8131 39.3596 16.0983C39.4777 16.3835 39.5383 16.6892 39.538 16.9979C39.5376 17.3066 39.4763 17.6122 39.3575 17.8971C39.2387 18.1821 39.0648 18.4407 38.8457 18.6582Z" fill="white"/>
</svg>
