<svg width="68" height="40" viewBox="0 0 68 40" fill="none" xmlns="http://www.w3.org/2000/svg">
<path fill-rule="evenodd" clip-rule="evenodd" d="M67.5 0H14L0 40H52.5L67.5 0ZM24.4393 11.4395C24.158 11.7207 24 12.1025 24 12.5C24 12.8975 24.158 13.2793 24.4393 13.5605C24.7206 13.8418 25.1022 14 25.5 14H47.5C47.8978 14 48.2794 13.8418 48.5607 13.5605C48.842 13.2793 49 12.8975 49 12.5C49 12.1025 48.842 11.7207 48.5607 11.4395C48.2794 11.1582 47.8978 11 47.5 11H25.5C25.1022 11 24.7206 11.1582 24.4393 11.4395ZM22.5 19H44.5C44.8978 19 45.2794 19.1582 45.5607 19.4395C45.842 19.7207 46 20.1025 46 20.5C46 20.8975 45.842 21.2793 45.5607 21.5605C45.2794 21.8418 44.8978 22 44.5 22H22.5C22.1022 22 21.7206 21.8418 21.4393 21.5605C21.158 21.2793 21 20.8975 21 20.5C21 20.1025 21.158 19.7207 21.4393 19.4395C21.7206 19.1582 22.1022 19 22.5 19ZM18.5 27H40.5C40.8978 27 41.2794 27.1582 41.5607 27.4395C41.842 27.7207 42 28.1025 42 28.5C42 28.8975 41.842 29.2793 41.5607 29.5605C41.2794 29.8418 40.8978 30 40.5 30H18.5C18.1022 30 17.7206 29.8418 17.4393 29.5605C17.158 29.2793 17 28.8975 17 28.5C17 28.1025 17.158 27.7207 17.4393 27.4395C17.7206 27.1582 18.1022 27 18.5 27Z" fill="white"/>
</svg>
