<svg width="25" height="25" viewBox="0 0 25 25" fill="none" xmlns="http://www.w3.org/2000/svg">
<path d="M15.0337 1.74124C15.0677 1.61433 15.1263 1.49535 15.2063 1.3911C15.2862 1.28686 15.3859 1.19938 15.4997 1.13368C15.6134 1.06798 15.739 1.02533 15.8693 1.00819C15.9995 0.991037 16.1319 0.999721 16.2587 1.03374C18.1126 1.51743 19.804 2.48655 21.1587 3.84129C22.5134 5.19603 23.4826 6.88741 23.9662 8.74124C24.0003 8.86813 24.0089 9.00048 23.9918 9.13073C23.9747 9.26098 23.932 9.38657 23.8663 9.50033C23.8006 9.61409 23.7131 9.71379 23.6089 9.79374C23.5046 9.87368 23.3857 9.9323 23.2587 9.96624C23.1743 9.98843 23.0873 9.99977 23 9.99999C22.7798 10.0001 22.5657 9.92744 22.391 9.79342C22.2163 9.65939 22.0907 9.47144 22.0337 9.25874C21.6395 7.74516 20.8486 6.36414 19.7427 5.25805C18.6369 4.15196 17.256 3.36083 15.7425 2.96624C15.6155 2.93243 15.4964 2.87391 15.392 2.79402C15.2876 2.71414 15.2 2.61446 15.1342 2.50068C15.0683 2.38691 15.0256 2.26127 15.0083 2.13096C14.9911 2.00064 14.9997 1.86821 15.0337 1.74124ZM14.7425 6.96624C16.4662 7.42624 17.5737 8.53499 18.0337 10.2587C18.0907 10.4714 18.2163 10.6594 18.391 10.7934C18.5657 10.9274 18.7798 11.0001 19 11C19.0873 10.9998 19.1743 10.9884 19.2587 10.9662C19.3857 10.9323 19.5046 10.8737 19.6089 10.7937C19.7131 10.7138 19.8006 10.6141 19.8663 10.5003C19.932 10.3866 19.9747 10.261 19.9918 10.1307C20.0089 10.0005 20.0003 9.86813 19.9662 9.74124C19.3262 7.34624 17.6537 5.67374 15.2587 5.03374C15.1319 4.99984 14.9995 4.99127 14.8693 5.00851C14.7391 5.02575 14.6136 5.06847 14.4999 5.13423C14.3862 5.19998 14.2866 5.28749 14.2067 5.39175C14.1268 5.49601 14.0683 5.61498 14.0344 5.74187C14.0005 5.86876 13.9919 6.00108 14.0091 6.13128C14.0264 6.26149 14.0691 6.38702 14.1349 6.50071C14.2006 6.6144 14.2881 6.71403 14.3924 6.79391C14.4966 6.87379 14.6156 6.93234 14.7425 6.96624ZM23.7962 16.8075L17.9075 14.1687L17.8912 14.1612C17.5855 14.0305 17.252 13.978 16.921 14.0086C16.5899 14.0391 16.2716 14.1517 15.995 14.3362C15.9624 14.3578 15.9311 14.3811 15.9012 14.4062L12.8587 17C10.9312 16.0637 8.94125 14.0887 8.005 12.1862L10.6025 9.09749C10.6275 9.06624 10.6512 9.03499 10.6737 9.00124C10.8543 8.72537 10.9638 8.40914 10.9926 8.08071C11.0214 7.75227 10.9685 7.42181 10.8387 7.11874V7.10374L8.1925 1.20499C8.02092 0.809072 7.7259 0.47926 7.35148 0.264789C6.97706 0.0503186 6.54331 -0.0373076 6.115 0.0149912C4.42121 0.237875 2.86647 1.0697 1.74116 2.35511C0.615855 3.64052 -0.00306642 5.2916 -3.94799e-06 6.99999C-3.94799e-06 16.925 8.075 25 18 25C19.7084 25.0031 21.3595 24.3841 22.6449 23.2588C23.9303 22.1335 24.7621 20.5788 24.985 18.885C25.0374 18.4568 24.9499 18.0232 24.7357 17.6488C24.5215 17.2744 24.1919 16.9793 23.7962 16.8075Z" fill="#FFC107"/>
</svg>
