<svg width="33" height="45" viewBox="0 0 33 45" fill="none" xmlns="http://www.w3.org/2000/svg">
<path d="M32.7109 23.0039C32.8552 22.7295 32.9436 22.4291 32.9709 22.1202C32.9983 21.8114 32.9641 21.5002 32.8703 21.2046C32.7766 20.9091 32.6251 20.6351 32.4247 20.3985C32.2243 20.1619 31.9789 19.9675 31.7028 19.8264C31.4267 19.6853 31.1254 19.6004 30.8162 19.5766C30.5071 19.5528 30.1963 19.5906 29.9018 19.6877C29.6074 19.7849 29.3351 19.9395 29.1009 20.1427C28.8666 20.3458 28.675 20.5934 28.5371 20.8711C27.3007 23.2593 25.4319 25.2618 23.1348 26.6602L20.498 20.7246C21.6984 19.7233 22.6029 18.4136 23.1142 16.9365C23.6255 15.4593 23.7243 13.8707 23.3998 12.3416C23.0753 10.8125 22.34 9.40088 21.2728 8.25866C20.2057 7.11645 18.8473 6.28692 17.3438 5.85938V3.1875C17.3438 2.5659 17.0968 1.96976 16.6573 1.53022C16.2177 1.09068 15.6216 0.84375 15 0.84375C14.3784 0.84375 13.7823 1.09068 13.3427 1.53022C12.9032 1.96976 12.6563 2.5659 12.6563 3.1875V5.85938C11.1527 6.28692 9.79428 7.11645 8.72717 8.25866C7.66005 9.40088 6.92468 10.8125 6.60022 12.3416C6.27575 13.8707 6.37449 15.4593 6.8858 16.9365C7.3971 18.4136 8.30161 19.7233 9.50195 20.7246L0.351565 41.2969C0.225561 41.579 0.156586 41.8833 0.148609 42.1921C0.140631 42.501 0.193807 42.8084 0.305079 43.0967C0.416351 43.3849 0.583521 43.6483 0.796973 43.8717C1.01042 44.0952 1.26594 44.2742 1.54883 44.3984C1.84853 44.53 2.17271 44.5966 2.5 44.5938C2.95458 44.595 3.39971 44.464 3.78117 44.2167C4.16263 43.9695 4.46396 43.6166 4.64844 43.2012L9.27149 32.7988C11.1274 33.3691 13.0584 33.6582 15 33.6562C16.9442 33.6544 18.8778 33.3702 20.7402 32.8125L25.3516 43.2012C25.536 43.6166 25.8374 43.9695 26.2188 44.2167C26.6003 44.464 27.0454 44.595 27.5 44.5938C27.8266 44.5964 28.1501 44.5298 28.4492 44.3984C28.7323 44.2743 28.988 44.0955 29.2017 43.8721C29.4153 43.6488 29.5827 43.3854 29.6941 43.0972C29.8056 42.8089 29.8589 42.5014 29.8511 42.1925C29.8433 41.8835 29.7744 41.5791 29.6484 41.2969L25.0566 30.9648C28.325 29.1082 30.9841 26.3427 32.7109 23.0039ZM15 10.2188C15.7726 10.2188 16.5278 10.4478 17.1702 10.8771C17.8126 11.3063 18.3132 11.9164 18.6089 12.6301C18.9046 13.3439 18.9819 14.1293 18.8312 14.8871C18.6805 15.6448 18.3084 16.3408 17.7621 16.8871C17.2158 17.4334 16.5198 17.8055 15.7621 17.9562C15.0043 18.1069 14.2189 18.0296 13.5051 17.7339C12.7914 17.4382 12.1813 16.9376 11.7521 16.2952C11.3228 15.6528 11.0938 14.8976 11.0938 14.125C11.0938 13.089 11.5053 12.0954 12.2379 11.3629C12.9704 10.6303 13.964 10.2188 15 10.2188ZM15 28.9688C13.7131 28.9704 12.4315 28.8043 11.1875 28.4746L13.7852 22.6309C14.5908 22.7481 15.4092 22.7481 16.2148 22.6309L18.8184 28.4902C17.5705 28.8082 16.2878 28.969 15 28.9688Z" fill="white"/>
</svg>
