<svg width="26" height="19" viewBox="0 0 26 19" fill="none" xmlns="http://www.w3.org/2000/svg">
<path d="M0.5 1.5C0.5 1.10218 0.658035 0.720644 0.93934 0.43934C1.22064 0.158035 1.60218 0 2 0H24C24.3978 0 24.7794 0.158035 25.0607 0.43934C25.342 0.720644 25.5 1.10218 25.5 1.5C25.5 1.89782 25.342 2.27936 25.0607 2.56066C24.7794 2.84196 24.3978 3 24 3H2C1.60218 3 1.22064 2.84196 0.93934 2.56066C0.658035 2.27936 0.5 1.89782 0.5 1.5ZM24 8H2C1.60218 8 1.22064 8.15804 0.93934 8.43934C0.658035 8.72064 0.5 9.10218 0.5 9.5C0.5 9.89782 0.658035 10.2794 0.93934 10.5607C1.22064 10.842 1.60218 11 2 11H24C24.3978 11 24.7794 10.842 25.0607 10.5607C25.342 10.2794 25.5 9.89782 25.5 9.5C25.5 9.10218 25.342 8.72064 25.0607 8.43934C24.7794 8.15804 24.3978 8 24 8ZM24 16H2C1.60218 16 1.22064 16.158 0.93934 16.4393C0.658035 16.7206 0.5 17.1022 0.5 17.5C0.5 17.8978 0.658035 18.2794 0.93934 18.5607C1.22064 18.842 1.60218 19 2 19H24C24.3978 19 24.7794 18.842 25.0607 18.5607C25.342 18.2794 25.5 17.8978 25.5 17.5C25.5 17.1022 25.342 16.7206 25.0607 16.4393C24.7794 16.158 24.3978 16 24 16Z" fill="white"/>
</svg>
