<svg width="24" height="14" viewBox="0 0 24 14" fill="none" xmlns="http://www.w3.org/2000/svg">
<path d="M23.0612 3.2165L13.0612 13.2165C12.9218 13.3563 12.7563 13.4673 12.5739 13.543C12.3916 13.6187 12.1961 13.6577 11.9987 13.6577C11.8013 13.6577 11.6058 13.6187 11.4235 13.543C11.2411 13.4673 11.0756 13.3563 10.9362 13.2165L0.936196 3.2165C0.654403 2.93471 0.496094 2.55251 0.496094 2.154C0.496094 1.75548 0.654403 1.37329 0.936196 1.0915C1.21799 0.809706 1.60018 0.651397 1.9987 0.651397C2.39721 0.651397 2.7794 0.809706 3.0612 1.0915L11.9999 10.0302L20.9387 1.09025C21.2205 0.808457 21.6027 0.650146 22.0012 0.650146C22.3997 0.650146 22.7819 0.808457 23.0637 1.09025C23.3455 1.37204 23.5038 1.75423 23.5038 2.15275C23.5038 2.55126 23.3455 2.93346 23.0637 3.21525L23.0612 3.2165Z" fill="white"/>
</svg>
