<svg width="20" height="18" viewBox="0 0 20 18" fill="none" xmlns="http://www.w3.org/2000/svg">
<path d="M4.75004 10.5C4.00836 10.5 3.28333 10.7199 2.66665 11.132C2.04996 11.544 1.56932 12.1297 1.28549 12.8149C1.00166 13.5002 0.927398 14.2542 1.07209 14.9816C1.21679 15.709 1.57394 16.3772 2.09839 16.9016C2.62283 17.4261 3.29102 17.7833 4.01845 17.9279C4.74588 18.0726 5.49988 17.9984 6.1851 17.7145C6.87032 17.4307 7.45599 16.9501 7.86805 16.3334C8.2801 15.7167 8.50004 14.9917 8.50004 14.25C8.50004 13.7575 8.40304 13.2699 8.21459 12.8149C8.02613 12.36 7.74991 11.9466 7.40169 11.5983C7.05347 11.2501 6.64007 10.9739 6.1851 10.7855C5.73013 10.597 5.24249 10.5 4.75004 10.5ZM4.75004 15.75C4.45337 15.75 4.16336 15.662 3.91668 15.4972C3.67001 15.3324 3.47775 15.0981 3.36422 14.824C3.25069 14.5499 3.22098 14.2483 3.27886 13.9574C3.33674 13.6664 3.4796 13.3991 3.68938 13.1893C3.89916 12.9796 4.16643 12.8367 4.4574 12.7788C4.74837 12.7209 5.04997 12.7506 5.32406 12.8642C5.59815 12.9777 5.83242 13.17 5.99724 13.4166C6.16206 13.6633 6.25004 13.9533 6.25004 14.25C6.25004 14.6478 6.092 15.0294 5.8107 15.3107C5.52939 15.592 5.14786 15.75 4.75004 15.75ZM1.75004 9C1.5274 9.00018 1.30973 8.93429 1.12456 8.81069C0.939389 8.68708 0.795059 8.51132 0.709837 8.30564C0.624616 8.09996 0.602335 7.87363 0.645817 7.65528C0.689299 7.43693 0.796587 7.2364 0.9541 7.07906L2.03129 6L0.9541 4.92094C0.742755 4.70959 0.624023 4.42295 0.624023 4.12406C0.624023 3.97607 0.653173 3.82952 0.709807 3.6928C0.766442 3.55607 0.849453 3.43183 0.9541 3.32719C1.05875 3.22254 1.18298 3.13953 1.31971 3.0829C1.45644 3.02626 1.60298 2.99711 1.75097 2.99711C2.04986 2.99711 2.33651 3.11584 2.54785 3.32719L3.62504 4.40625L4.7041 3.32906C4.91544 3.11772 5.20209 2.99899 5.50097 2.99899C5.79986 2.99899 6.08651 3.11772 6.29785 3.32906C6.50919 3.54041 6.62793 3.82705 6.62793 4.12594C6.62793 4.42482 6.50919 4.71147 6.29785 4.92281L5.21879 6L6.29879 7.07906C6.51013 7.29041 6.62886 7.57705 6.62886 7.87594C6.62886 8.17482 6.51013 8.46147 6.29879 8.67281C6.08744 8.88416 5.8008 9.00289 5.50191 9.00289C5.20303 9.00289 4.91638 8.88416 4.70504 8.67281L3.62504 7.59375L2.54597 8.67094C2.44142 8.77538 2.31731 8.85819 2.18074 8.91465C2.04417 8.97112 1.89782 9.00012 1.75004 9ZM19.046 16.0791C19.2573 16.2904 19.3761 16.5771 19.3761 16.8759C19.3761 17.1748 19.2573 17.4615 19.046 17.6728C18.8346 17.8842 18.548 18.0029 18.2491 18.0029C17.9502 18.0029 17.6636 17.8842 17.4522 17.6728L16.375 16.5938L15.296 17.6737C15.0846 17.8851 14.798 18.0038 14.4991 18.0038C14.2002 18.0038 13.9136 17.8851 13.7022 17.6737C13.4909 17.4624 13.3721 17.1758 13.3721 16.8769C13.3721 16.578 13.4909 16.2913 13.7022 16.08L14.7813 15L13.7013 13.9209C13.4899 13.7096 13.3712 13.4229 13.3712 13.1241C13.3712 12.8252 13.4899 12.5385 13.7013 12.3272C13.9126 12.1158 14.1993 11.9971 14.4982 11.9971C14.797 11.9971 15.0837 12.1158 15.295 12.3272L16.375 13.4062L17.4541 12.3263C17.6654 12.1149 17.9521 11.9962 18.251 11.9962C18.5499 11.9962 18.8365 12.1149 19.0478 12.3263C19.2592 12.5376 19.3779 12.8242 19.3779 13.1231C19.3779 13.422 19.2592 13.7087 19.0478 13.92L17.9688 15L19.046 16.0791ZM14.9772 7.39594C14.4888 9.55219 12.79 11.4769 10.75 12.1978C10.4687 12.2973 10.1594 12.2809 9.89012 12.1523C9.62086 12.0237 9.41371 11.7934 9.31426 11.512C9.2148 11.2307 9.23118 10.9214 9.35979 10.6521C9.48839 10.3828 9.7187 10.1757 10 10.0763C11.3191 9.6075 12.4628 8.30344 12.7816 6.89813C13.0038 5.9175 12.8191 4.94438 12.2491 4.035V4.87875C12.2491 5.17712 12.1306 5.46327 11.9196 5.67425C11.7086 5.88522 11.4225 6.00375 11.1241 6.00375C10.8257 6.00375 10.5396 5.88522 10.3286 5.67425C10.1176 5.46327 9.9991 5.17712 9.9991 4.87875V1.125C9.9991 0.826631 10.1176 0.540483 10.3286 0.329505C10.5396 0.118526 10.8257 0 11.1241 0H14.8741C15.1725 6.28765e-09 15.4586 0.118526 15.6696 0.329505C15.8806 0.540483 15.9991 0.826631 15.9991 1.125C15.9991 1.42337 15.8806 1.70952 15.6696 1.9205C15.4586 2.13147 15.1725 2.25 14.8741 2.25H13.75C14.9472 3.80719 15.3832 5.6025 14.9772 7.39594Z" fill="white"/>
</svg>
