<svg width="22" height="22" viewBox="0 0 22 22" fill="none" xmlns="http://www.w3.org/2000/svg">
<path d="M13.5219 17.5755L20.0103 11.013C21.206 9.81653 21.8777 8.19422 21.8777 6.50269C21.8777 4.81117 21.206 3.18886 20.0103 1.99238L19.9661 2.03658M13.5219 17.5755V17.513H13.5172H13.4958M13.5219 17.5755L13.5172 17.5709L13.4774 17.5316L13.4958 17.513M13.5219 17.5755H13.5172C13.3434 17.7503 13.1367 17.8888 12.909 17.9831C12.6813 18.0774 12.4371 18.1256 12.1906 18.1249H5.46875L2.79875 20.7977M13.4958 17.513L19.9659 10.9691L19.9661 10.9688C21.1501 9.78407 21.8152 8.17765 21.8152 6.50269C21.8152 4.82774 21.1501 3.22134 19.9661 2.03658M13.4958 17.513H13.4912L13.4729 17.5314C13.3049 17.7003 13.1051 17.8343 12.885 17.9254C12.665 18.0165 12.429 18.0631 12.1908 18.0624H12.1906H5.46875H5.44284L5.42453 18.0807L2.75456 20.7535M19.9661 2.03658C18.7831 0.853741 17.179 0.188859 15.5061 0.187989C13.8332 0.187119 12.2284 0.850332 11.0441 2.03194L11.0439 2.03215L4.47029 8.52891L4.42625 8.48457L4.47018 8.52902M19.9661 2.03658L4.47018 8.52902M2.79875 20.7977L2.75456 20.7535M2.79875 20.7977L2.75453 20.7535L2.75456 20.7535M2.79875 20.7977C2.58741 21.009 2.30076 21.1278 2.00188 21.1278C1.70299 21.1278 1.41634 21.009 1.205 20.7977C0.993656 20.5863 0.874924 20.2997 0.874924 20.0008C0.874924 19.7019 0.993656 19.4153 1.205 19.2039L3.875 16.5311L4.47018 8.52902M2.75456 20.7535C2.55493 20.9531 2.28419 21.0653 2.00188 21.0653C1.71957 21.0653 1.44882 20.9531 1.24919 20.7535C1.04957 20.5539 0.937424 20.2831 0.937424 20.0008C0.937424 19.7185 1.04957 19.4478 1.24919 19.2481L1.24922 19.2481L3.91922 16.5753L3.9375 16.557V16.5311V9.81019V9.81015C3.93734 9.57199 3.98434 9.33616 4.07579 9.11626C4.16721 8.8964 4.30125 8.69682 4.47018 8.52902M18.6875 9.18738H18.7169L18.7356 9.16477C19.4237 8.33475 19.7651 7.27134 19.6887 6.19593C19.6124 5.12052 19.1243 4.11598 18.3259 3.39145C17.5275 2.66691 16.4805 2.27821 15.4027 2.30628C14.3251 2.33434 13.2998 2.77692 12.5402 3.5419C12.5401 3.54197 12.5401 3.54203 12.54 3.5421L10.5811 5.47476L10.5625 5.49312V5.51926V9.78113V9.932L10.6692 9.82533L15.4992 4.99627L15.455 4.95207L15.4992 4.99626C15.6988 4.79664 15.9696 4.68449 16.2519 4.68449C16.5342 4.68449 16.8049 4.79664 17.0046 4.99626C17.2042 5.19589 17.3163 5.46663 17.3163 5.74894C17.3163 6.03125 17.2042 6.302 17.0046 6.50162L14.4246 9.08068L14.3178 9.18738H14.4688H18.6875ZM6.08107 9.92418L6.0625 9.94253V9.96863V14.2811V14.432L6.16919 14.3253L8.41919 12.0753L8.4375 12.057V12.0311V7.74488V7.59523L8.33107 7.70043L6.08107 9.92418ZM12.0312 15.9374H12.0573L12.0757 15.9188L16.5288 11.4188L16.6342 11.3124H16.4844H12.2188H12.1929L12.1746 11.3307L7.67456 15.8307L7.56786 15.9374H7.71875H12.0312Z" fill="#B3B0B0" stroke="#B3B0B0" stroke-width="0.125"/>
</svg>
