<svg width="27" height="25" viewBox="0 0 27 25" fill="none" xmlns="http://www.w3.org/2000/svg">
<path d="M27 12.5C27.0003 15.7864 25.7064 18.9407 23.3983 21.2802C21.0902 23.6196 17.9536 24.956 14.6675 25H14.5C11.3088 25.0067 8.23745 23.7853 5.9225 21.5888C5.63325 21.3156 5.46436 20.9387 5.45299 20.541C5.44162 20.1433 5.5887 19.7574 5.86188 19.4681C6.13505 19.1789 6.51194 19.01 6.90963 18.9986C7.30733 18.9873 7.69325 19.1343 7.9825 19.4075C9.3403 20.6894 11.0458 21.5427 12.8858 21.8608C14.7258 22.1789 16.6188 21.9477 18.3281 21.196C20.0375 20.4444 21.4874 19.2057 22.4968 17.6346C23.5061 16.0636 24.03 14.23 24.0031 12.3628C23.9762 10.4957 23.3997 8.67794 22.3455 7.13663C21.2914 5.59533 19.8064 4.39887 18.0761 3.69676C16.3458 2.99466 14.447 2.81806 12.6169 3.18902C10.7868 3.55998 9.10657 4.46206 7.78625 5.78252C7.77 5.79877 7.755 5.81377 7.7375 5.82877L5.36125 8.00002H7.5C7.89782 8.00002 8.27936 8.15805 8.56066 8.43936C8.84196 8.72066 9 9.10219 9 9.50002C9 9.89784 8.84196 10.2794 8.56066 10.5607C8.27936 10.842 7.89782 11 7.5 11H1.5C1.10218 11 0.720644 10.842 0.43934 10.5607C0.158035 10.2794 0 9.89784 0 9.50002V3.50002C0 3.10219 0.158035 2.72066 0.43934 2.43936C0.720644 2.15805 1.10218 2.00002 1.5 2.00002C1.89782 2.00002 2.27936 2.15805 2.56066 2.43936C2.84196 2.72066 3 3.10219 3 3.50002V6.09002L5.685 3.63252C7.43612 1.8908 9.66396 0.706877 12.0873 0.230171C14.5107 -0.246536 17.021 0.00534391 19.3013 0.95402C21.5817 1.9027 23.5299 3.50565 24.9001 5.56055C26.2703 7.61545 27.001 10.0302 27 12.5Z" fill="#1E1E1E"/>
</svg>
