<svg width="95" height="65" viewBox="0 0 95 65" fill="none" xmlns="http://www.w3.org/2000/svg">
<g clip-path="url(#clip0_521_346)">
<path d="M28.3274 15.9359C28.3274 15.9359 27.8362 16.5413 27.8362 16.844C27.8362 17.1468 28.9004 16.3903 28.9004 16.3903C28.9004 16.3903 28.7544 17.1922 29.0819 17.0456C29.4093 16.8991 29.8434 16.4997 29.8434 16.4997C29.8434 16.4997 30.207 16.6143 30.4068 16.4997C30.5007 16.4482 30.5918 16.3916 30.6797 16.3301C30.6797 16.3301 30.2431 17.3573 30.4614 17.6511C30.6797 17.9448 30.7704 17.8706 30.7704 17.8706C30.7704 17.8706 31.4431 15.7253 32.5885 15.3401C33.7338 14.9548 33.8614 14.9733 33.8614 14.9733C33.8614 14.9733 33.843 15.5602 33.5524 15.7413C33.2617 15.9224 33.0066 16.1253 33.3341 16.108C33.6615 16.0908 33.9889 15.8328 34.1527 15.6863C34.3164 15.5397 34.0435 15.9244 34.298 15.9423C34.4543 15.9541 34.6077 15.9912 34.7523 16.0524C34.7523 16.0524 34.4071 16.5644 34.4071 16.7308C34.4071 16.8972 34.1533 16.8408 34.3157 16.9868C34.4782 17.1327 34.6965 17.2428 34.9706 17.4271C35.2447 17.6114 35.5887 17.6472 35.4782 17.4085C35.3678 17.1698 34.6965 16.8965 34.8602 16.5464C35.0239 16.1964 35.5151 15.3362 36.1331 15.5564C36.7512 15.7765 36.9695 16.0684 37.2601 16.0146C37.5507 15.9608 37.7151 16.0517 37.533 15.8495C37.3508 15.6472 37.0056 15.5935 37.2055 15.4463C37.4054 15.2991 37.6237 14.9874 37.3324 14.9695C37.0412 14.9516 36.7144 14.6943 37.0596 14.6213C37.4048 14.5484 37.6231 14.3826 37.8782 14.126C38.1332 13.8693 38.3509 13.742 38.4778 13.9423C38.6047 14.1426 38.2418 14.8959 38.078 15.1161C37.9143 15.3362 37.4961 15.7029 37.6599 15.7561C37.8236 15.8092 38.2234 15.8296 38.3871 16.0312C38.5508 16.2328 38.5324 16.7096 38.4232 17.1685C38.3141 17.6274 38.2779 17.9749 38.078 18.1586C37.8782 18.3423 37.6231 18.2136 37.46 18.2501C37.2969 18.2866 37.0412 18.782 37.0792 18.9656C37.1173 19.1493 37.1338 19.3496 37.1338 19.3496C37.1338 19.3496 38.4245 18.9279 38.6974 18.4536C38.9702 17.9794 39.5153 17.6101 39.6067 17.2799C39.6981 16.9496 39.8066 16.2712 40.1702 15.758C40.5338 15.2447 40.879 14.8229 40.7521 14.4562C40.6252 14.0895 40.5338 13.4476 40.4246 13.4322C40.3155 13.4169 40.8054 13.1391 40.7787 12.6988C40.7596 12.4914 40.7596 12.2828 40.7787 12.0754C40.7787 12.0754 41.4964 11.1218 41.8416 10.8652C42.1868 10.6086 42.2414 10.2598 42.678 9.87448C43.1145 9.4892 42.7871 9.32472 43.3506 9.2876C43.9141 9.25048 43.9852 9.4348 43.9852 9.4348C43.9852 9.4348 43.7491 10.0582 44.1121 10.0946C44.475 10.1311 45.3482 10.0946 45.694 10.1497C46.0399 10.2047 46.4555 10.8102 46.512 10.8281C46.5685 10.846 46.439 10.9561 46.0208 10.9932C45.6027 11.0303 45.4573 11.0482 45.0576 11.4521C44.6578 11.8559 43.9039 12.3673 44.0099 12.5509C44.1159 12.7346 44.1914 12.734 44.9554 12.7525C45.7194 12.7711 46.1249 12.2757 46.531 12.2572C46.9371 12.2386 47.2462 12.2207 47.283 12.3308C47.3198 12.4409 46.8464 12.8991 46.6281 13.2844C46.4098 13.6697 45.8463 14.2719 45.8279 14.4396C45.8095 14.6073 45.4098 14.6233 45.2828 14.6047C45.1559 14.5861 45.1007 14.9887 45.2283 15.0265C45.3558 15.0642 45.1553 15.1545 45.3006 15.2466C45.4459 15.3388 45.0646 15.5583 45.4098 15.5397L45.7556 15.5218C45.7556 15.5218 45.1915 15.9058 45.0278 15.98C44.864 16.0543 44.647 16.236 44.628 16.492C44.6089 16.748 44.5372 16.6943 44.1552 16.8223C43.7732 16.9503 42.355 17.5192 42.3734 17.8309C42.3918 18.1426 42.3004 18.2712 42.8277 18.2527C43.355 18.2341 44.555 17.5192 44.555 17.5192V17.7752C44.555 17.7752 44.8824 17.5372 45.0278 17.7202C45.1731 17.9032 45.9161 18.6552 46.1008 18.5272C46.2854 18.3992 46.2829 18.2885 45.847 17.9039C45.411 17.5192 45.1375 17.317 45.1375 17.317C45.3345 17.143 45.5724 17.0229 45.8286 16.9682C46.229 16.8952 47.5381 16.9503 47.7564 16.8402C47.9747 16.7301 48.1745 16.4735 47.8471 16.4562L45.5741 16.3282C45.5741 16.3282 46.4625 15.6684 46.9194 15.5602C47.3763 15.4521 47.665 15.1935 47.5926 15.0284C47.5203 14.8633 47.3744 14.6066 47.085 14.7532C46.7956 14.8997 46.1763 14.9919 46.3235 14.7532C46.4707 14.5145 46.505 14.6802 46.8312 14.4972C47.1573 14.3141 47.2493 14.4607 47.4492 14.2041C47.6491 13.9474 47.3769 14.0018 47.5584 13.7273C47.7399 13.4527 48.2101 12.8639 48.2101 12.8639C48.2101 12.8639 47.9734 13.5788 48.2101 13.6319C48.4468 13.685 48.7558 13.8706 48.5553 14.0159C48.3547 14.1612 47.9556 14.1209 48.1009 14.3161C48.2462 14.5113 48.283 14.7865 48.1371 14.9509C47.9911 15.1154 48.719 15.0245 48.8465 14.7129C48.9741 14.4012 49.9012 14.1625 50.1011 13.6306C50.3009 13.0988 50.4463 13.5391 50.7737 13.5756C51.1011 13.6121 51.2103 13.9058 50.8644 14.2156C50.5186 14.5253 50.2825 14.5644 50.3009 14.8025C50.3194 15.0405 50.3371 15.2242 50.0471 15.2613C49.7571 15.2985 48.7742 15.1141 48.9049 15.5545C49.0356 15.9948 49.523 15.9212 49.4126 16.1413C49.3022 16.3615 48.7558 16.677 48.7901 17.0239C48.8243 17.3708 48.9354 17.9596 49.1175 17.9596C49.2996 17.9596 49.3713 17.9224 49.6251 17.8674C49.879 17.8124 50.0979 18.1976 50.1525 17.4834C50.207 16.7692 50.0979 16.5663 50.3523 16.3096C50.6068 16.053 50.6614 15.9794 50.9342 15.9794C51.2071 15.9794 51.9159 16.2181 52.1888 16.053C52.4616 15.8879 52.6615 15.5026 52.1888 15.3925C51.716 15.2825 50.9342 15.1365 50.9342 15.1365C50.9342 15.1365 52.3887 13.5775 52.9344 13.1929C53.4801 12.8082 53.7891 12.5138 53.8799 12.2393C53.9706 11.9647 54.6978 11.7989 55.2797 11.9455C55.8616 12.0921 56.3705 12.2015 56.4981 12.7135C56.6256 13.2255 56.571 13.8866 56.3712 14.0889C56.1713 14.2911 56.1173 14.7289 56.6624 14.7289C57.2075 14.7289 57.844 14.5452 57.844 14.5452C57.8646 14.9483 57.8646 15.3523 57.844 15.7554C57.8078 16.2872 57.5901 16.5439 58.0261 16.5439C58.462 16.5439 58.4804 16.3237 58.4804 16.3237C58.4804 16.3237 58.4988 16.8191 58.7533 16.7077C59.0078 16.5964 59.134 16.0677 58.8986 15.3324C58.6632 14.597 57.4442 13.6089 57.408 13.205C57.3719 12.8012 57.9715 12.4901 58.5172 12.7103C59.063 12.9305 60.2623 13.7343 60.3169 13.5903C60.3714 13.4463 60.4628 13.4623 60.6976 13.4988C60.9324 13.5353 60.9888 13.7548 60.9343 13.3522C60.8797 12.9497 59.8314 12.7359 60.1379 12.6425C60.4444 12.549 61.3195 12.3122 61.756 12.606C62.1926 12.8997 62.5175 13.2844 63.2473 13.3029C63.977 13.3215 64.9561 13.2479 65.538 13.6511C66.1199 14.0543 66.9201 14.5471 67.1016 14.4031C67.2831 14.2591 67.0654 14.3295 66.4105 13.8911C65.7557 13.4527 64.5195 12.5343 64.0836 12.4978C63.6477 12.4613 62.7923 12.2591 62.7923 12.2591C62.7923 12.2591 63.3742 12.021 62.9376 11.8194C62.5871 11.6612 62.1891 11.6478 61.829 11.7823C61.6107 11.8745 60.9197 11.6543 60.4653 11.8194C60.011 11.9845 59.9742 12.0389 59.1924 11.9474C58.4106 11.8559 58.2647 11.4892 57.7558 11.4706C57.2468 11.4521 56.5012 11.6908 55.9739 11.2505C55.4466 10.8102 55.156 10.1503 54.6648 10.3154C54.1737 10.4806 53.0105 11.7644 52.4648 11.966C51.9191 12.1676 50.9558 12.0389 50.683 11.3426C50.4101 10.6463 50.1195 10.1318 49.6829 10.1868C49.2463 10.2418 48.5553 10.0588 48.1555 10.0223C47.7557 9.98584 47.394 10.1503 47.3007 9.89432C47.2075 9.63832 47.4099 9.75608 46.8102 9.2844C46.2106 8.81272 45.9916 8.44537 45.3552 8.42745C44.7187 8.40953 43.9369 8.31737 43.5556 7.98713C43.1742 7.65689 42.6824 7.69337 42.5733 7.98713C42.4641 8.28089 42.1735 8.53752 41.9387 8.53752C41.7039 8.53752 41.7934 8.75704 41.6297 8.88568C41.466 9.01432 41.3936 8.83064 40.9754 9.2524C40.5573 9.67416 40.1569 9.82072 40.1569 10.1145C40.1569 10.4082 39.6841 10.4447 39.5026 10.4985C39.3211 10.5522 39.2843 10.645 38.9023 11.0105C38.5203 11.3759 38.4842 11.6505 38.014 11.8175C37.5437 11.9845 37.3413 12.1106 37.3597 12.3295C37.3781 12.5484 36.9415 13.0815 36.5982 13.1365C36.2549 13.1916 35.8894 13.3196 35.7435 13.6313C35.6764 13.7841 35.5975 13.9313 35.5074 14.0716L33.8163 14.0351C33.8163 14.0351 33.0891 14.0351 32.6525 14.3103C32.216 14.5855 31.9799 14.7135 31.9799 14.7135C31.9799 14.7135 31.5256 14.4575 31.2527 14.5855C30.9976 14.7124 30.7643 14.8796 30.5617 15.0809C30.3434 15.2825 30.016 15.5577 30.016 15.5577C29.7753 15.6604 29.5157 15.7103 29.2545 15.7042C28.7728 15.7049 28.4454 15.7784 28.3274 15.9359Z" fill="white"/>
<path d="M53.6375 13.66C53.6375 13.66 53.8278 13.3208 54.3196 13.2843C54.8114 13.2479 55.1649 13.4398 55.3743 13.2843C55.5837 13.1288 55.774 13.2978 55.5741 13.5525C55.3743 13.8072 55.1103 13.8085 54.9923 14.1003C54.8742 14.3922 54.8101 14.5406 54.392 14.4203C53.9738 14.3 53.7009 14.4024 53.5467 14.2558C53.3925 14.1093 53.4255 13.8763 53.6375 13.66Z" fill="white"/>
<path d="M55.1693 14.5814C55.2344 14.4964 55.3254 14.4353 55.4282 14.4074C55.6287 14.3479 55.8089 14.2103 55.6585 14.1597C55.5082 14.1091 55.4238 13.9991 55.2194 14.1597C55.0151 14.3203 54.8469 14.3517 54.8647 14.4624C54.8825 14.5731 55.1693 14.5814 55.1693 14.5814Z" fill="white"/>
<path d="M60.2921 14.9898C60.2921 14.9898 60.0561 15.1639 60.4742 15.1818C60.8924 15.1998 61.3626 14.9617 61.6558 15.2823C61.949 15.603 62.0562 15.8142 62.0016 15.9793C61.9471 16.1444 61.2471 16.0983 61.0377 16.0254C60.8283 15.9524 60.9743 16.0529 61.1926 16.2359C61.4108 16.419 61.8195 16.7402 62.2713 16.8228C62.7231 16.9054 63.3501 17.2068 63.6166 17.6484C63.8831 18.09 64.1439 18.3722 64.1166 18.5009C64.0893 18.6295 63.3894 18.9591 63.0436 18.5009C62.6977 18.0426 62.4801 17.9249 62.4801 17.9249C62.4844 18.0863 62.509 18.2465 62.5531 18.4017C62.6165 18.5764 62.5074 18.8234 62.0454 18.4477C61.5834 18.0721 60.8397 17.9895 60.9032 17.4878C60.9667 16.986 60.9032 16.6897 60.5123 16.5156C60.1214 16.3415 59.549 16.1316 59.7508 15.7476C59.9526 15.3636 60.1316 15.3348 59.669 15.0686C59.2064 14.8023 58.9234 14.7921 58.6143 14.3345C58.3053 13.8769 57.6054 13.4916 57.9049 13.3636C58.2044 13.2356 59.3327 13.2484 59.6144 13.5556C59.8962 13.8628 60.2559 14.1642 60.2921 14.9898Z" fill="white"/>
<path d="M25.0772 12.2744L23.5028 11.2952L23.8239 10.9477L24.5156 11.4091L24.9972 11.7727L25.0175 11.7509L24.6558 11.2575L24.2046 10.5368L24.5981 10.1119L25.3373 10.5131L25.8564 10.8453L25.8767 10.8229L25.4795 10.3595L24.9807 9.69906L25.2948 9.35986L26.3704 10.8799L25.9662 11.317L25.2288 10.9253L24.7263 10.62L24.7079 10.6399L25.0442 11.125L25.4839 11.8379L25.0772 12.2744Z" fill="white"/>
<path d="M26.6864 10.5717L25.4484 9.23665L26.458 8.28369L26.7074 8.55313L25.9941 9.22577L26.2365 9.48689L26.9199 8.84177L27.1674 9.10929L26.484 9.75376L26.7334 10.0232L27.4466 9.34993L27.6966 9.61937L26.6864 10.5717Z" fill="white"/>
<path d="M27.6211 8.4652C27.2664 8.02104 27.2924 7.52312 27.722 7.17368C28.1415 6.83321 28.5336 6.85817 28.8008 7.19608L28.8097 7.20632L28.4746 7.47896L28.4676 7.47C28.3249 7.29144 28.1891 7.3004 27.96 7.48728C27.7182 7.68376 27.6884 7.85528 27.9562 8.19128C28.224 8.52728 28.4067 8.53304 28.6726 8.31928C28.896 8.13752 28.9645 8.01912 28.8287 7.84888L28.4429 8.16248L28.2303 7.89496L28.9194 7.33496L29.5242 8.09144L29.231 8.32952L29.0578 8.11256L29.0457 8.1228C29.0901 8.26552 29.0819 8.48568 28.8312 8.68984C28.4283 9.0188 27.9847 8.92024 27.6211 8.4652Z" fill="white"/>
<path d="M29.6999 7.96308L28.6434 6.47637L29.7672 5.66357L29.9804 5.96309L29.186 6.53909L29.3928 6.82965L30.1543 6.27925L30.3656 6.57621L29.6041 7.12661L29.8167 7.42421L30.6105 6.84821L30.8238 7.14773L29.6999 7.96308Z" fill="white"/>
<path d="M31.3847 6.78382L30.6029 5.55503L30.1111 5.87503L29.9138 5.56463L31.24 4.70703L31.4367 5.01743L30.9449 5.33743L31.7267 6.56686L31.3847 6.78382Z" fill="white"/>
<path d="M33.2516 5.65034L32.9387 5.06986L31.7642 4.38506L32.1684 4.16298L32.6456 4.44778L32.9115 4.60778L32.9356 4.59498L32.9425 4.2833L32.9648 3.72395L33.3614 3.50635L33.2979 4.87338L33.6107 5.45322L33.2516 5.65034Z" fill="white"/>
<path d="M33.7154 4.35216C33.4724 3.84016 33.612 3.35824 34.1006 3.12336C34.5892 2.88849 35.0436 3.08176 35.2872 3.59696C35.5309 4.11216 35.3926 4.5896 34.9065 4.82448C34.4204 5.05935 33.9585 4.86864 33.7154 4.35216ZM34.8932 3.7864C34.7104 3.4024 34.548 3.34736 34.2669 3.4824C33.9858 3.61744 33.9236 3.77616 34.1063 4.16528C34.2891 4.5544 34.4541 4.60304 34.7352 4.468C35.0163 4.33296 35.0785 4.1736 34.8932 3.7864Z" fill="white"/>
<path d="M35.5601 3.70029L35.147 2.66541L35.5208 2.51309L35.9332 3.54285C36.031 3.78604 36.1483 3.83212 36.4269 3.71885C36.7055 3.60557 36.7556 3.49037 36.6585 3.24781L36.2461 2.21805L36.6224 2.06445L37.0367 3.09933C37.2062 3.52173 37.0634 3.88588 36.5741 4.08556C36.0849 4.28524 35.7289 4.12332 35.5601 3.70029Z" fill="white"/>
<path d="M37.6669 2.65352C37.4962 2.10952 37.6941 1.65705 38.2126 1.49065C38.731 1.32425 39.0845 1.50985 39.2203 1.94184L39.2279 1.96488L38.8148 2.09736L38.811 2.08392C38.7323 1.83432 38.6022 1.7812 38.3287 1.86888C38.0374 1.96232 37.948 2.1076 38.0799 2.52104C38.2119 2.93448 38.3649 3.00296 38.6561 2.90952C38.9296 2.82184 39.0058 2.70344 38.9271 2.4532L38.9233 2.4404L39.3357 2.30856L39.3434 2.3316C39.4792 2.7636 39.2882 3.12264 38.7773 3.28584C38.2665 3.44904 37.8382 3.20008 37.6669 2.65352Z" fill="white"/>
<path d="M39.4754 2.08076C39.3351 1.5278 39.5686 1.08813 40.0966 0.954368C40.6245 0.820608 41.0288 1.10157 41.1665 1.65452C41.3042 2.20748 41.0757 2.64844 40.5503 2.78092C40.0249 2.9134 39.6124 2.63436 39.4754 2.08076ZM40.7445 1.76076C40.641 1.34477 40.4906 1.26157 40.1905 1.33773C39.8904 1.41389 39.7933 1.55916 39.8967 1.97772C40.0001 2.39628 40.1505 2.47564 40.4532 2.39948C40.7559 2.32332 40.8466 2.17612 40.7432 1.76076H40.7445Z" fill="white"/>
<path d="M41.9939 2.42409L41.0103 0.750502L41.4596 0.664742L42.1671 1.92426L42.1938 1.91914L42.3873 0.487463L42.8315 0.402344L42.5231 2.32233L41.9939 2.42409Z" fill="white"/>
<path d="M43.2453 2.19439L43.0067 0.383841L44.378 0.198242L44.4262 0.56368L43.4572 0.69168L43.5042 1.04624L44.4325 0.922078L44.4801 1.28496L43.5518 1.40784L43.5994 1.77327L44.5683 1.64527L44.6159 2.01071L43.2453 2.19439Z" fill="white"/>
<path d="M44.8044 1.99097L44.6654 0.16762L45.4967 0.10362C45.9282 0.0697005 46.1839 0.2521 46.2118 0.606018C46.2347 0.902336 46.1027 1.09114 45.7943 1.14298V1.16985C45.9542 1.20633 46.0373 1.29785 46.1179 1.42905L46.3832 1.86809L45.9111 1.90521L45.6649 1.50073C45.5716 1.34905 45.5126 1.28505 45.3209 1.30041L45.1591 1.31321L45.2092 1.96089L44.8044 1.99097ZM45.1331 0.973376L45.5773 0.938816C45.7677 0.923456 45.8241 0.861377 45.8102 0.682817C45.7962 0.504258 45.7296 0.453699 45.5411 0.468419L45.0969 0.503618L45.1331 0.973376Z" fill="white"/>
<path d="M46.4752 1.86623L46.4289 0.0377598L47.8116 0L47.8205 0.367998L46.8439 0.392958L46.8528 0.750716L47.7887 0.726396L47.7982 1.09247L46.8623 1.11615L46.8718 1.48479L47.8484 1.45983L47.8573 1.82783L46.4752 1.86623Z" fill="white"/>
<path d="M48.0483 1.82783L48.0997 0L48.7901 0.0198399C49.3739 0.0371198 49.7216 0.388478 49.7051 0.959995C49.6886 1.53151 49.3244 1.86367 48.7406 1.84703L48.0483 1.82783ZM48.4925 0.380158L48.462 1.46815L48.7431 1.47647C49.1112 1.48735 49.2546 1.37919 49.2673 0.945275C49.2799 0.511357 49.1403 0.395518 48.7742 0.385278L48.4925 0.380158Z" fill="white"/>
<path d="M50.4133 1.00816C50.4729 0.441119 50.8403 0.10704 51.3784 0.164C51.9165 0.22096 52.2034 0.625438 52.1444 1.19311C52.0853 1.76079 51.7205 2.09487 51.1824 2.03727C50.6443 1.97967 50.3543 1.57583 50.4133 1.00816ZM51.7135 1.14704C51.7585 0.720797 51.6469 0.590878 51.3372 0.557598C51.0275 0.524318 50.8892 0.627998 50.8441 1.05424C50.7991 1.48047 50.9139 1.61103 51.2249 1.64367C51.5358 1.67631 51.6691 1.57327 51.7135 1.14704Z" fill="white"/>
<path d="M52.2167 2.12739L52.5149 0.323242L52.9426 0.395562L53.3716 1.39844L53.4807 1.66404L53.5074 1.66852L53.5423 1.42532L53.6927 0.520361L54.0931 0.588201L53.7929 2.39235L53.3659 2.32003L52.9528 1.37284L52.8259 1.06628L52.7992 1.0618L52.758 1.34404L52.6158 2.19523L52.2167 2.12739Z" fill="white"/>
<path d="M54.3926 2.51337L55.4796 0.901855L56.0507 1.04585L56.2607 2.98313L55.8337 2.87561L55.7893 2.44553L55.0437 2.25801L54.8019 2.61641L54.3926 2.51337ZM55.2607 1.93737L55.7493 2.06025L55.7176 1.75945L55.6877 1.32745L55.6611 1.32041L55.4282 1.68713L55.2607 1.93737Z" fill="white"/>
<path d="M56.3172 3.00793L56.8521 1.26074L57.2399 1.38106L56.8128 2.77689L57.7075 3.05529L57.6003 3.40729L56.3172 3.00793Z" fill="white"/>
<path d="M57.6999 3.4433L58.3167 1.72363L58.6975 1.86315L58.2044 3.23595L59.0852 3.55594L58.9583 3.90282L57.6999 3.4433Z" fill="white"/>
<path d="M59.5738 4.15211L60.3048 2.47852L61.5701 3.04107L61.4229 3.37835L60.5294 2.98091L60.3867 3.30795L61.2433 3.69195L61.0974 4.02667L60.2401 3.64587L60.0929 3.98315L60.9863 4.37739L60.8391 4.71466L59.5738 4.15211Z" fill="white"/>
<path d="M61.3747 3.95468C61.6285 3.44588 62.093 3.26668 62.5753 3.515C63.0575 3.76332 63.1819 4.24395 62.9249 4.75211C62.7441 5.10923 62.4629 5.30507 62.1469 5.30443L62.2288 5.85227L61.7611 5.61163L61.7294 5.19371C61.2446 4.94475 61.1177 4.46283 61.3747 3.95468ZM62.5391 4.55371C62.7295 4.16972 62.6743 4.01036 62.3969 3.86764C62.1196 3.72492 61.9528 3.771 61.7624 4.15308C61.572 4.53515 61.6298 4.69771 61.9071 4.83979C62.1844 4.98187 62.3462 4.93515 62.5391 4.55371Z" fill="white"/>
<path d="M63.0099 5.03177L63.5709 4.07178L63.9186 4.2785L63.3602 5.23849C63.2289 5.46441 63.2638 5.58665 63.5227 5.74025C63.7816 5.89385 63.9034 5.86377 64.0347 5.63849L64.5932 4.67849L64.9428 4.88585L64.3819 5.84585C64.1521 6.23881 63.779 6.34633 63.324 6.07689C62.8691 5.80745 62.7809 5.42473 63.0099 5.03177Z" fill="white"/>
<path d="M64.2156 6.59214L65.1979 5.05615L65.5393 5.27823L64.557 6.81422L64.2156 6.59214Z" fill="white"/>
<path d="M64.7658 6.94418L65.8052 5.44531L66.4886 5.92723C66.8059 6.15251 66.9011 6.50835 66.6701 6.84179C66.4391 7.17522 66.0774 7.20658 65.7576 6.9813L65.4073 6.73363L65.0983 7.18162L64.7658 6.94418ZM65.9283 5.98419L65.6148 6.43603L65.979 6.69203C66.132 6.79955 66.2157 6.78867 66.3395 6.61011C66.4632 6.43155 66.4454 6.34771 66.2919 6.24019L65.9283 5.98419Z" fill="white"/>
<path d="M66.1085 7.88648L67.2412 6.45801L67.6854 6.81833L67.4036 7.68488L67.2272 8.14376L67.2482 8.1604L67.6511 7.88456L68.417 7.40776L68.8612 7.76808L67.7285 9.19591L67.4112 8.93992L67.9468 8.26408L68.1822 8.00232L68.1588 7.98376L67.8548 8.19624L67.1923 8.59816L66.8078 8.2884L67.0489 7.54216L67.186 7.19464L67.1644 7.178L66.9632 7.46664L66.4277 8.14248L66.1085 7.88648Z" fill="white"/>
<path d="M67.9018 9.35784L69.122 8.00488L70.1449 8.94376L69.8994 9.2164L69.1766 8.55336L68.938 8.81768L69.6303 9.4532L69.3866 9.72391L68.6937 9.08776L68.4481 9.35976L69.1703 10.0234L68.9247 10.2954L67.9018 9.35784Z" fill="white"/>
<path d="M69.063 10.4275L70.3562 9.14746L70.6596 9.45914L70.4229 10.5241L70.3556 10.8057L70.3746 10.8249L70.5447 10.6489L71.1932 10.0089L71.4775 10.3007L70.1849 11.5807L69.881 11.2697L70.098 10.2579L70.1735 9.93402L70.1545 9.91482L69.9596 10.1158L69.3479 10.7225L69.063 10.4275Z" fill="white"/>
<path d="M70.6189 12.0698L71.7047 11.1034L71.3182 10.6618L71.5917 10.418L72.6337 11.609L72.3602 11.8528L71.9731 11.4106L70.8874 12.377L70.6189 12.0698Z" fill="white"/>
<path d="M71.7872 12.5156L71.8151 12.4932L72.0626 12.8074L72.041 12.8247C71.8843 12.9527 71.8855 13.0436 72.0886 13.3022C72.232 13.4839 72.3031 13.4999 72.3989 13.4238C72.4947 13.3476 72.5112 13.299 72.3868 13.0705L72.2326 12.7825C72.0638 12.4721 72.1108 12.2462 72.3316 12.0695C72.5525 11.8929 72.8875 11.8852 73.2111 12.2954C73.5348 12.7057 73.4573 13.043 73.175 13.2689L73.1585 13.2823L72.9091 12.9662L72.9326 12.9476C73.081 12.8286 73.081 12.7274 72.9142 12.5156C72.7695 12.3319 72.6838 12.3063 72.5969 12.378C72.5099 12.4497 72.5144 12.506 72.614 12.698L72.7657 12.9911C72.9459 13.3386 72.8697 13.5671 72.6616 13.7329C72.4351 13.9146 72.1102 13.9249 71.791 13.5178C71.4572 13.0974 71.4737 12.7665 71.7872 12.5156Z" fill="white"/>
<path d="M12.1842 33.9019C11.2222 30.1899 10.261 26.2881 9.30072 22.1964C8.33746 25.9084 7.37546 29.8179 6.41474 33.925C5.54158 29.9254 4.66991 25.7309 3.79972 21.3413C2.69981 21.1058 1.59991 20.8613 0.5 20.6079C2.31548 29.669 4.13603 37.8238 5.96103 45.235C7.0677 41.1275 8.17628 37.2619 9.28613 33.6101C10.349 37.2741 11.4138 40.732 12.4792 44.01C14.3709 36.6501 16.2669 30.0011 18.1662 23.8879C17.0591 23.7317 15.9528 23.5666 14.8474 23.3925C13.959 26.7414 13.0713 30.2446 12.1842 33.9019Z" fill="white"/>
<path d="M29.1694 32.976C29.4833 32.7796 29.7621 32.5315 29.9944 32.2419C30.2627 31.9063 30.4755 31.5292 30.6245 31.1251C30.7914 30.6893 30.8783 30.1715 30.8783 29.568C30.8861 28.9737 30.7901 28.3827 30.5947 27.8221C30.4052 27.2875 30.102 26.8012 29.7063 26.3974C29.2743 25.9637 28.7634 25.618 28.2017 25.3792C27.5993 25.113 26.8895 24.937 26.0722 24.8512C24.1262 24.6515 22.1846 24.4248 20.2475 24.1709C20.2272 29.4551 20.2071 34.7443 20.1872 40.0383C21.2596 39.9253 22.3333 39.8186 23.4083 39.7183C23.4163 37.7557 23.4243 35.793 23.4324 33.8304L25.0448 33.8118C26.0842 35.7209 27.1236 37.5526 28.1643 39.3228C29.3488 39.2354 30.5344 39.156 31.721 39.0847C30.5934 37.2454 29.4664 35.3497 28.3407 33.3773C28.631 33.2753 28.909 33.1407 29.1694 32.976ZM27.0786 30.7705C26.6896 31.1309 26.1648 31.3075 25.5049 31.2934L23.4406 31.2467C23.4457 29.8869 23.451 28.5276 23.4565 27.1686C24.1431 27.2233 24.8314 27.2764 25.5214 27.328C26.1813 27.376 26.7048 27.584 27.0906 27.9475C27.4764 28.311 27.6687 28.7955 27.6662 29.4086C27.6712 29.6649 27.6214 29.9193 27.52 30.1544C27.4185 30.3894 27.268 30.5996 27.0786 30.7705Z" fill="white"/>
<path d="M32.2801 39.0515C33.38 38.9875 34.4799 38.931 35.5798 38.8819C35.9292 37.9189 36.2791 36.9641 36.6293 36.0173C38.228 35.984 39.8271 35.9586 41.4266 35.9411C41.7689 36.8525 42.1107 37.7604 42.4521 38.665C43.5689 38.6445 44.6862 38.6317 45.8038 38.6266C44.133 35.1891 42.4622 31.7485 40.7908 28.217C40.2544 27.077 39.7169 25.9273 39.1784 24.7681C36.8768 29.3191 34.5759 34.0077 32.2801 39.0515ZM37.4632 33.7683C37.9958 32.3565 38.5282 30.9583 39.0603 29.5738C39.5803 30.9818 40.0998 32.3763 40.6188 33.7575C39.5667 33.76 38.5148 33.7636 37.4632 33.7683Z" fill="white"/>
<path d="M57.3858 26.977C57.0127 26.6105 56.5315 26.3302 55.9422 26.136C55.3527 25.9408 54.661 25.8576 53.8684 25.88C51.8434 25.9368 49.8178 25.9649 47.7919 25.9645L47.7284 38.6243C48.8245 38.6268 49.9202 38.6367 51.0155 38.6537C51.0227 37.1442 51.0298 35.634 51.037 34.1232C51.9787 34.133 52.9202 34.1441 53.8615 34.1565C54.6513 34.162 55.3379 34.0596 55.9213 33.8493C56.5046 33.6389 56.9835 33.3437 57.3579 32.9635C57.7331 32.5846 58.0221 32.128 58.205 31.6253C58.397 31.0919 58.4943 30.5287 58.4925 29.9613C58.4999 29.3946 58.4073 28.8312 58.219 28.2973C58.0444 27.799 57.7595 27.3475 57.3858 26.977ZM54.6915 31.4288C54.3031 31.756 53.7576 31.9197 53.0549 31.9197H51.0535C51.0599 30.6589 51.066 29.3983 51.0719 28.1379C51.7319 28.1315 52.3916 28.123 53.0511 28.1123C53.7676 28.1008 54.3203 28.2544 54.7048 28.5776C55.0893 28.9008 55.2816 29.3725 55.2791 29.9907C55.274 30.6222 55.0781 31.1015 54.6915 31.4288Z" fill="white"/>
<path d="M63.8964 33.3718C65.5717 33.3846 67.245 33.3987 68.9164 33.414C68.9202 32.5633 68.9238 31.7127 68.9272 30.8624C67.2558 30.9008 65.5824 30.9343 63.9072 30.9629C63.9114 29.918 63.9161 28.8726 63.9212 27.8269C66.0203 27.7232 68.1167 27.5992 70.2103 27.455C70.2141 26.5706 70.2177 25.6863 70.2211 24.8022C67.0521 25.1312 63.8767 25.3906 60.6951 25.5805C60.6747 30.0511 60.6536 34.5191 60.6316 38.9846C63.9347 39.1616 67.2321 39.404 70.5238 39.7116C70.5267 38.8246 70.5303 37.9373 70.5346 37.0499C68.3191 36.9219 66.1007 36.8114 63.8793 36.7183C63.8882 35.603 63.8939 34.4875 63.8964 33.3718Z" fill="white"/>
<path d="M81.647 32.9989C81.3094 32.5396 80.8993 32.1394 80.4331 31.8142C79.8807 31.4317 79.2906 31.1079 78.6722 30.8479C78.28 30.6797 77.888 30.5144 77.4963 30.3519C76.8973 30.1057 76.4233 29.8392 76.0743 29.5525C75.7246 29.2651 75.552 28.8639 75.5539 28.3423C75.5539 27.8347 75.7525 27.4059 76.1453 27.0469C76.518 26.6956 76.995 26.4779 77.5027 26.4274C78.5554 26.3224 79.3771 26.7474 79.9698 27.7631C80.7072 26.946 81.4437 26.098 82.1794 25.2191C81.6493 24.586 80.9666 24.1012 80.197 23.8111C79.4431 23.5301 78.5522 23.4764 77.523 23.6236C76.7603 23.7251 76.0165 23.9381 75.3147 24.2559C74.714 24.5269 74.1617 24.896 73.6801 25.3484C73.2448 25.757 72.8945 26.2489 72.6495 26.7954C72.4081 27.3453 72.2849 27.9405 72.2878 28.5419C72.2878 29.1698 72.3868 29.7138 72.5931 30.1797C72.792 30.6349 73.0704 31.0505 73.4148 31.4066C73.7689 31.7676 74.1682 32.0805 74.6027 32.3371C75.0625 32.6113 75.5377 32.8581 76.026 33.0763C76.469 33.2722 76.9112 33.4721 77.3529 33.676C78.0655 34.012 78.5706 34.3627 78.8695 34.7192C79.1684 35.0757 79.3137 35.5563 79.3137 36.1534C79.3137 36.7793 79.0992 37.2613 78.6791 37.5877C78.2591 37.9141 77.7673 38.0485 77.2101 38.0024C76.6345 37.9634 76.0797 37.7691 75.6041 37.4398C75.148 37.1185 74.7709 36.6193 74.4726 35.9422C73.5842 36.3855 72.6946 36.8122 71.8037 37.2222C72.416 38.2737 73.1578 39.0929 74.0291 39.6715C74.9003 40.25 75.9645 40.6315 77.2216 40.7889C78.0357 40.892 78.7686 40.8696 79.4203 40.707C80.0362 40.5636 80.611 40.2789 81.1 39.875C81.5757 39.4688 81.946 38.9517 82.1787 38.3685C82.4369 37.7254 82.5663 37.0372 82.5595 36.3435C82.5697 35.7157 82.4963 35.0893 82.3412 34.4811C82.2018 33.9483 81.9665 33.4459 81.647 32.9989Z" fill="white"/>
<path d="M83.7607 22.9651L83.7493 26.2604C85.0146 26.1196 86.278 25.9718 87.5395 25.8169C87.523 31.1826 87.5065 36.5439 87.49 41.9006C88.5531 42.076 89.6145 42.2586 90.6742 42.4485C90.6907 36.7738 90.7072 31.0941 90.7237 25.4092C91.981 25.2415 93.2362 25.0666 94.4892 24.8844C94.4922 23.5515 94.4958 22.218 94.5 20.8838C90.9384 21.6671 87.3587 22.3609 83.7607 22.9651Z" fill="white"/>
<path d="M37.097 45.3068C36.7429 45.1967 34.152 45.6089 34.152 45.6089L36.0881 43.6563C36.0881 43.6563 36.9339 43.216 37.3153 43.2435C37.6967 43.271 38.5971 42.9132 38.7608 42.9408C38.9246 42.9683 39.7704 43.0233 39.9335 42.9408C40.0966 42.8582 40.3701 42.7488 40.8612 42.6476C41.3524 42.5465 41.216 42.2534 41.1614 41.6755C41.1068 41.0976 40.4247 41.3452 39.9608 41.2915C39.4969 41.2377 32.1697 42.6489 32.1697 42.6489C32.07 44.0595 34.2332 43.712 34.2332 43.712C34.2332 43.712 32.4063 45.0873 32.0757 45.3625C31.7451 45.6377 31.4754 46.4076 31.4754 46.4076C31.4754 46.4076 31.1214 46.4627 30.5756 46.5996C30.0299 46.7366 28.4486 47.1494 28.1757 47.4246C27.9029 47.6998 28.8845 47.8086 29.3211 47.8649C29.7577 47.9212 30.1118 47.975 30.1118 47.975C30.1118 47.975 30.1118 48.2502 29.9138 48.4025C29.7158 48.5548 27.7664 51.2486 27.5481 51.9359C27.3299 52.6233 27.5481 52.2937 28.0393 52.101C28.5304 51.9084 30.4938 49.9001 30.9583 49.4329C31.4228 48.9657 32.8397 47.3695 32.8397 47.3695C33.2988 47.3932 33.7587 47.3468 34.2041 47.2319C34.9947 47.0399 37.0672 46.3519 37.6624 46.1279C38.2576 45.9039 37.4517 45.4169 37.097 45.3068Z" fill="white"/>
<path d="M43.3703 42.501C43.2884 42.1982 42.6615 42.1982 42.6615 42.1982C42.6615 42.1982 37.7519 49.1025 37.6808 50.227C37.6097 51.3515 38.1885 51.9358 38.1885 51.9358L43.3703 43.2709C43.3703 43.2709 43.4521 42.803 43.3703 42.501Z" fill="white"/>
<path d="M46.7798 47.9996C46.2341 48.2198 44.1064 48.8246 44.1064 48.8246L45.3342 46.8143L47.5159 43.158C47.5159 43.158 47.8433 42.39 47.743 41.9478C47.6428 41.5056 46.8343 41.2803 46.8343 41.2803C45.4161 42.1807 41.2204 50.0898 41.2204 50.0898L41.9336 50.3458C41.8579 50.4608 41.806 50.59 41.781 50.7257C41.756 50.8615 41.7585 51.0009 41.7883 51.1356C41.8975 51.5753 43.2611 50.9154 43.4064 50.9436C43.5518 50.9717 44.5702 50.6959 46.0431 49.9254C47.5159 49.1548 49.6182 49.757 49.6182 49.757L49.9583 48.3958C49.9583 48.3958 47.3249 47.782 46.7798 47.9996Z" fill="white"/>
<path d="M67.6619 41.5473C67.1892 41.5473 65.776 41.4276 65.776 41.4276C65.776 41.4276 65.4758 41.9396 65.0666 42.0561C64.6573 42.1726 64.63 41.9095 64.2074 42.1982C63.7847 42.4868 63.2803 42.9822 62.9382 43.0231C62.5962 43.0641 62.2028 42.7518 62.2028 42.7518C62.2028 42.7518 62.0124 42.7927 62.2028 43.274C62.3931 43.7553 63.1305 45.1447 63.3754 45.53C63.6204 45.9153 63.9212 46.451 63.9212 46.9604C63.9212 47.4698 64.0164 47.7578 63.7714 48.129C63.5265 48.5002 63.1711 48.4733 63.0347 48.5969C62.8983 48.7204 62.9528 49.0877 62.7212 49.2797C62.4896 49.4717 62.2713 49.7066 61.9985 49.6637C61.7522 49.6266 58.2971 48.3389 57.62 48.0868C58.2203 47.377 58.8542 46.6353 59.1055 46.2839C59.6233 45.5582 59.8143 44.9738 60.169 44.451C60.5237 43.9281 61.2053 42.7275 61.2053 42.7275L61.9965 41.5902C61.9965 41.5902 61.5054 41.0142 60.9876 41.0404C60.4698 41.0667 54.7689 45.4417 54.7689 45.4417L55.3692 43.0206C55.1493 42.8801 54.963 42.6924 54.8235 42.4708C54.6052 42.1131 53.9237 41.7828 53.7599 42.0305C53.5962 42.2782 53.2142 42.3883 53.2142 42.3883V42.9438L50.4691 47.2068C50.4691 47.2068 49.3269 48.8068 49.1232 49.6836C48.9195 50.5604 50.0503 50.4516 50.0503 50.4516C50.0503 50.4516 50.6506 49.8186 51.0599 49.3514C51.4692 48.8842 53.2688 45.61 53.2688 45.61V45.9678L52.9414 46.6282V48.0573C52.9414 48.0573 53.2688 48.3601 53.6749 48.3773C54.081 48.3946 53.7327 48.5501 53.7327 48.5501C53.9281 48.9341 54.5233 48.3812 54.5233 48.3812C54.5233 48.3812 55.0418 47.6426 55.5475 47.2292C56.0533 46.8158 57.6872 45.2766 57.6872 45.2766L55.8616 47.4237C55.8616 47.4237 55.262 48.634 55.3984 48.9367C55.5348 49.2394 56.2163 50.0644 56.3255 49.7348C56.3737 49.5889 56.8211 49.0404 57.3497 48.4113L57.6346 48.8266C57.6346 48.8266 59.7071 50.6557 60.2528 50.8349C60.7985 51.0141 61.7662 51.2612 63.1032 50.7108C64.4402 50.1604 65.2607 49.2529 65.4073 48.9917C65.5539 48.7306 66.1301 47.5063 65.9784 46.7774C65.8268 46.0484 64.7093 44.3153 64.5329 44.2052C64.3565 44.0951 64.3558 43.9857 64.3558 43.9857C64.3558 43.9857 66.5102 42.9399 66.8376 42.8715C67.165 42.803 68.2375 42.5777 68.424 42.6833C68.4259 42.6839 68.1347 41.5473 67.6619 41.5473Z" fill="white"/>
<path d="M81.3341 15.0797L81.2002 14.7597L82.114 14.3687L82.2473 14.6855L81.3341 15.0797Z" fill="white"/>
<path d="M83.1198 14.9904L82.4218 13.3315L83.6763 12.7939L83.8172 13.1287L82.9288 13.5082L83.0652 13.832L83.9149 13.4685L84.0545 13.8007L83.2048 14.1642L83.3457 14.4983L84.2341 14.1187L84.375 14.4535L83.1198 14.9904Z" fill="white"/>
<path d="M84.3255 13.838L84.3121 13.806L84.6732 13.6511L84.6833 13.676C84.7608 13.8591 84.849 13.8828 85.1459 13.7554C85.3547 13.6664 85.3883 13.6018 85.3414 13.4904C85.2944 13.3791 85.2532 13.3503 85.0063 13.4092L84.6941 13.4815C84.3572 13.5615 84.1567 13.4572 84.0481 13.1999C83.9396 12.9426 84.0209 12.6181 84.4923 12.4159C84.9638 12.2136 85.2608 12.3768 85.3998 12.7058L85.408 12.7256L85.0444 12.8812L85.033 12.8543C84.96 12.6808 84.8648 12.654 84.6218 12.7583C84.4105 12.8485 84.3642 12.924 84.4079 13.0284C84.4517 13.1327 84.5076 13.1404 84.7144 13.0956L85.0317 13.0277C85.4061 12.9464 85.6028 13.0789 85.7031 13.3215C85.8141 13.5864 85.738 13.8975 85.271 14.0997C84.7849 14.3071 84.4784 14.2079 84.3255 13.838Z" fill="white"/>
<path d="M86.4151 13.5803L85.8573 12.2555L85.3268 12.482L85.1859 12.148L86.6149 11.5361L86.7558 11.8702L86.2253 12.0974L86.7831 13.4222L86.4151 13.5803Z" fill="white"/>
<path d="M87.2647 13.2161L87.0801 12.7783L87.542 12.5806L87.7261 13.019L87.2647 13.2161Z" fill="white"/>
<path d="M80.3652 47.1159L80.4921 46.7959L81.4122 47.1709L81.2853 47.4909L80.3652 47.1159Z" fill="white"/>
<path d="M81.2624 48.1522L81.3519 47.9275C81.4788 47.603 81.7536 47.557 82.0284 47.5384L82.3704 47.5186C82.5442 47.5083 82.6185 47.4744 82.6623 47.3643C82.7105 47.2446 82.6826 47.155 82.463 47.0654C82.2225 46.9675 82.1457 47.0149 82.0747 47.1934L82.0575 47.2357L81.6863 47.0846L81.7022 47.0443C81.8291 46.7205 82.1369 46.5323 82.6293 46.7346C83.0671 46.9131 83.1528 47.2094 83.0316 47.5109C82.9161 47.8002 82.654 47.8648 82.4002 47.8744L82.1064 47.8821C81.9452 47.8891 81.8228 47.9006 81.7891 47.98L82.0582 48.0843L82.6927 48.3403L82.5576 48.677L81.2624 48.1522Z" fill="white"/>
<path d="M83.1426 47.9464C83.3508 47.4274 83.755 47.1944 84.2322 47.389C84.7094 47.5835 84.8376 48.0328 84.6294 48.5518C84.4213 49.0709 84.0177 49.3038 83.5424 49.1099C83.0671 48.916 82.9339 48.4674 83.1426 47.9464ZM84.2335 48.3906C84.3927 47.9938 84.3394 47.8536 84.0875 47.7506C83.8356 47.6475 83.6979 47.7109 83.5386 48.107C83.3793 48.5032 83.4326 48.6446 83.6877 48.747C83.9428 48.8494 84.0748 48.7874 84.2335 48.3906Z" fill="white"/>
<path d="M84.552 49.4931L84.6421 49.2684C84.769 48.944 85.0431 48.8979 85.3185 48.8793L85.6599 48.8588C85.8338 48.8486 85.9081 48.8153 85.9518 48.7052C85.9956 48.5952 85.9728 48.496 85.7526 48.4064C85.5127 48.3084 85.4353 48.3558 85.3642 48.5344L85.3471 48.5766L84.9759 48.4256L84.9924 48.3853C85.1193 48.0608 85.4271 47.8733 85.9188 48.0755C86.3567 48.2541 86.4424 48.5497 86.3218 48.8518C86.2057 49.1411 85.941 49.2057 85.6872 49.2153L85.3934 49.223C85.2322 49.23 85.1098 49.2409 85.0761 49.3209L85.3452 49.4246L85.9798 49.6806L85.8446 50.0179L84.552 49.4931Z" fill="white"/>
<path d="M86.3973 50.2442L86.877 49.0467L86.5033 48.8951L86.6105 48.6282L86.6841 48.6583C86.8402 48.7223 86.9595 48.7037 87.0985 48.5859L87.4348 48.7235L86.7653 50.3946L86.3973 50.2442Z" fill="white"/>
<path d="M7.33993 50.2674L6.91351 49.2543L7.27965 49.0982L7.70353 50.1061C7.80379 50.3436 7.92055 50.3871 8.19341 50.2706C8.46628 50.1541 8.51069 50.0396 8.41361 49.8022L7.98782 48.7942L8.3565 48.6367L8.78229 49.6492C8.95679 50.0633 8.82163 50.4242 8.34317 50.6297C7.86471 50.8351 7.5138 50.6809 7.33993 50.2674Z" fill="white"/>
<path d="M9.12241 50.2673L9.0304 48.3473L9.56596 48.1182L10.8706 49.5178L10.4702 49.6894L10.1821 49.377L9.48411 49.6759L9.50441 50.1028L9.12241 50.2673ZM9.4657 49.2932L9.92259 49.0974L9.7208 48.8798L9.44286 48.5598L9.41811 48.5706L9.45048 48.9982L9.4657 49.2932Z" fill="white"/>
<path d="M10.9468 49.4859L10.2488 47.827L11.5033 47.29L11.6442 47.6241L10.7558 48.0036L10.8922 48.3281L11.7419 47.964L11.8815 48.2961L11.0337 48.6596L11.1746 48.9943L12.063 48.6148L12.2032 48.9489L10.9468 49.4859Z" fill="white"/>
<path d="M7.01694 11.8058L7.6864 10.1348L8.44787 10.4452C8.80386 10.5898 8.97138 10.9111 8.8229 11.2829C8.67441 11.6548 8.33302 11.7648 7.97703 11.6202L7.58614 11.4608L7.38752 11.9568L7.01694 11.8058ZM7.92436 10.6237L7.72257 11.1274L8.12869 11.2932C8.29875 11.3623 8.3768 11.3335 8.45676 11.1338C8.53671 10.9341 8.50054 10.8586 8.32984 10.7888L7.92436 10.6237Z" fill="white"/>
<path d="M8.53798 12.4262L9.20744 10.752L9.96891 11.0624C10.3649 11.2236 10.5108 11.4982 10.3807 11.822C10.2722 12.094 10.0736 12.2022 9.77918 12.1113L9.76903 12.1363C9.89594 12.2393 9.92894 12.3545 9.94226 12.5081L9.98478 13.0131L9.55137 12.8364L9.51139 12.3705C9.4949 12.1951 9.47015 12.1145 9.29501 12.0415L9.14652 11.9807L8.90856 12.5747L8.53798 12.4262ZM9.2709 11.6742L9.67892 11.8406C9.85215 11.911 9.93274 11.8815 9.9962 11.7171C10.0597 11.5526 10.0248 11.4796 9.85215 11.4086L9.4473 11.2428L9.2709 11.6742Z" fill="white"/>
<path d="M10.0914 13.0594L10.7608 11.3877L11.3954 11.6437C11.9272 11.8607 12.129 12.3055 11.9189 12.8296C11.7089 13.3538 11.2577 13.5336 10.7259 13.3154L10.0914 13.0594ZM10.9969 11.876L10.5978 12.8738L10.8548 12.9787C11.1911 13.1157 11.3624 13.0658 11.5198 12.669C11.6772 12.2722 11.5909 12.1179 11.2545 11.9803L10.9969 11.876Z" fill="white"/>
<path d="M11.7044 13.7165L11.8815 13.2749L12.346 13.4669L12.1696 13.9085L11.7044 13.7165Z" fill="white"/>
<path d="M40.6905 54.5672V54.5422H40.9742V54.5614C40.9742 54.7054 41.0262 54.7464 41.2597 54.7464C41.4241 54.7464 41.4641 54.7131 41.4641 54.6254C41.4641 54.5377 41.445 54.507 41.2635 54.4756L41.0357 54.4347C40.7889 54.3924 40.6848 54.2657 40.6848 54.0635C40.6848 53.8612 40.8295 53.668 41.2001 53.668C41.5707 53.668 41.723 53.86 41.723 54.1198V54.1352H41.4374V54.114C41.4374 53.9777 41.3816 53.9329 41.1906 53.9329C41.0243 53.9329 40.9723 53.97 40.9723 54.0513C40.9723 54.1326 41.0072 54.1544 41.1576 54.1838L41.3873 54.2286C41.6595 54.2811 41.7515 54.4251 41.7515 54.6126C41.7515 54.8212 41.6132 55.0081 41.2439 55.0081C40.8663 55.0113 40.6905 54.8552 40.6905 54.5672Z" fill="white"/>
<path d="M41.8619 54.4835V53.688H42.1494V54.4797C42.1494 54.6665 42.2128 54.7293 42.4292 54.7293C42.6456 54.7293 42.7072 54.6653 42.7072 54.4797V53.688H42.9965V54.4835C42.9965 54.8086 42.8062 55.0115 42.4292 55.0115C42.0523 55.0115 41.8619 54.8086 41.8619 54.4835Z" fill="white"/>
<path d="M43.1767 54.9917V53.688H43.7707C44.0486 53.688 44.2479 53.8569 44.2479 54.1469C44.2479 54.4368 44.0486 54.6045 43.7707 54.6045H43.4661V54.9885L43.1767 54.9917ZM43.4661 53.9517V54.3446H43.7834C43.916 54.3446 43.9604 54.3043 43.9604 54.1481C43.9604 53.992 43.916 53.9517 43.7834 53.9517H43.4661Z" fill="white"/>
<path d="M44.3634 54.9917V53.688H45.3495V53.9517H44.6515V54.2077H45.3197V54.4637H44.6527V54.7267H45.3507V54.9891L44.3634 54.9917Z" fill="white"/>
<path d="M45.5024 54.9917V53.688H46.097C46.4054 53.688 46.5774 53.832 46.5774 54.0848C46.5774 54.2973 46.4733 54.4233 46.2512 54.4425V54.4637C46.2998 54.4792 46.3443 54.5053 46.3816 54.5403C46.4189 54.5753 46.4481 54.6182 46.4669 54.6659L46.6313 54.9929H46.2937L46.1408 54.6915C46.083 54.5782 46.0443 54.5296 45.9079 54.5296H45.7918V54.9929L45.5024 54.9917ZM45.7918 54.2877H46.109C46.2442 54.2877 46.2886 54.2467 46.2886 54.1187C46.2886 53.9907 46.2442 53.951 46.109 53.951H45.7918V54.2877Z" fill="white"/>
<path d="M47.1047 54.5672V54.5422H47.3883V54.5614C47.3883 54.7054 47.4404 54.7464 47.6739 54.7464C47.8376 54.7464 47.8782 54.7131 47.8782 54.6254C47.8782 54.5377 47.8592 54.507 47.6777 54.4756L47.4499 54.4347C47.203 54.3924 47.0983 54.2657 47.0983 54.0635C47.0983 53.8612 47.2436 53.668 47.6136 53.668C47.9835 53.668 48.1371 53.86 48.1371 54.1198V54.1352H47.8516V54.114C47.8516 53.9777 47.7951 53.9329 47.6041 53.9329C47.4385 53.9329 47.3864 53.97 47.3864 54.0513C47.3864 54.1326 47.4207 54.1544 47.5717 54.1838L47.8008 54.2286C48.073 54.2811 48.1657 54.4251 48.1657 54.6126C48.1657 54.8212 48.0267 55.0081 47.658 55.0081C47.2798 55.0113 47.1047 54.8552 47.1047 54.5672Z" fill="white"/>
<path d="M48.2824 54.9917V53.688H48.5718V54.2077H49.1353V53.6899H49.4246V54.9936H49.1353V54.4637H48.5718V54.9891L48.2824 54.9917Z" fill="white"/>
<path d="M49.5693 54.3393C49.5693 53.9329 49.8047 53.668 50.1905 53.668C50.5764 53.668 50.8099 53.9329 50.8099 54.3393C50.8099 54.7457 50.5764 55.0113 50.1905 55.0113C49.8047 55.0113 49.5693 54.7464 49.5693 54.3393ZM50.5015 54.3393C50.5015 54.034 50.4126 53.9502 50.1905 53.9502C49.9684 53.9502 49.8777 54.034 49.8777 54.3393C49.8777 54.6446 49.9684 54.7291 50.1905 54.7291C50.4126 54.7291 50.5034 54.6452 50.5034 54.3393H50.5015Z" fill="white"/>
<path d="M50.9336 54.3393C50.9336 53.9329 51.169 53.668 51.5555 53.668C51.9419 53.668 52.1748 53.9329 52.1748 54.3393C52.1748 54.7457 51.9413 55.0113 51.5555 55.0113C51.1697 55.0113 50.9336 54.7464 50.9336 54.3393ZM51.8658 54.3393C51.8658 54.034 51.7769 53.9502 51.5555 53.9502C51.334 53.9502 51.2426 54.034 51.2426 54.3393C51.2426 54.6446 51.3334 54.7291 51.5555 54.7291C51.7776 54.7291 51.8658 54.6452 51.8658 54.3393Z" fill="white"/>
<path d="M52.5974 54.9918V53.9519H52.1805V53.6895H53.3037V53.9519H52.8868V54.9931L52.5974 54.9918Z" fill="white"/>
<path d="M53.3716 54.9917V53.688H53.6609V54.9917H53.3716Z" fill="white"/>
<path d="M53.8481 54.9917V53.688H54.1572L54.576 54.3414L54.6839 54.5168H54.7035L54.6997 54.3414V53.688H54.9891V54.9917H54.6801L54.279 54.3747L54.1521 54.1744H54.1324L54.1369 54.3747V54.9917H53.8481Z" fill="white"/>
<path d="M55.1262 54.3393C55.1262 53.9329 55.3616 53.668 55.755 53.668C56.1484 53.668 56.3458 53.86 56.3458 54.1684V54.178H56.0387V54.1704C56.0387 54.0065 55.96 53.9502 55.7493 53.9502C55.5278 53.9502 55.4352 54.0321 55.4352 54.3393C55.4352 54.6465 55.5335 54.7329 55.7766 54.7329C55.9809 54.7329 56.0716 54.6977 56.0716 54.5409H55.7188V54.2971H56.3496V54.9902H56.0812V54.7918H56.0697C56.031 54.891 55.9289 55.01 55.6992 55.01C55.326 55.0113 55.1262 54.756 55.1262 54.3393Z" fill="white"/>
<path d="M42.0396 57.3276V56.2863H41.6227V56.0239H42.7459V56.2863H42.329V57.3276H42.0396Z" fill="white"/>
<path d="M42.7541 56.6764C42.7541 56.2694 42.9895 56.0044 43.3754 56.0044C43.7612 56.0044 43.9947 56.2694 43.9947 56.6764C43.9947 57.0834 43.7612 57.3477 43.3754 57.3477C42.9895 57.3477 42.7541 57.0828 42.7541 56.6764ZM43.6857 56.6764C43.6857 56.3705 43.5975 56.2866 43.3754 56.2866C43.1533 56.2866 43.0625 56.3705 43.0625 56.6764C43.0625 56.9823 43.1533 57.0655 43.3754 57.0655C43.5975 57.0655 43.6857 56.9817 43.6857 56.6764Z" fill="white"/>
<path d="M44.1184 56.6764C44.1184 56.2694 44.3538 56.0044 44.7397 56.0044C45.1255 56.0044 45.359 56.2694 45.359 56.6764C45.359 57.0834 45.1255 57.3477 44.7397 57.3477C44.3538 57.3477 44.1184 57.0828 44.1184 56.6764ZM45.0506 56.6764C45.0506 56.3705 44.9618 56.2866 44.7397 56.2866C44.5176 56.2866 44.4275 56.3705 44.4275 56.6764C44.4275 56.9823 44.5182 57.0655 44.7397 57.0655C44.9611 57.0655 45.0506 56.9817 45.0506 56.6764Z" fill="white"/>
<path d="M45.4986 57.3276V56.0239H45.788V57.0652H46.4555V57.3276H45.4986Z" fill="white"/>
<path d="M46.5139 56.9036V56.8786H46.7975V56.8978C46.7975 57.0418 46.8496 57.0828 47.0831 57.0828C47.2468 57.0828 47.2874 57.0495 47.2874 56.9625C47.2874 56.8754 47.2684 56.8434 47.0869 56.8121L46.8591 56.7717C46.6122 56.7289 46.5082 56.6021 46.5082 56.3999C46.5082 56.1977 46.6529 56.0044 47.0234 56.0044C47.394 56.0044 47.5463 56.1964 47.5463 56.4562V56.4716H47.2608V56.4479C47.2608 56.3116 47.2049 56.2668 47.0133 56.2668C46.8477 56.2668 46.7956 56.3039 46.7956 56.3852C46.7956 56.4665 46.8305 56.4889 46.9809 56.5177L47.2106 56.5625C47.4822 56.6149 47.5749 56.7589 47.5749 56.9465C47.5749 57.1551 47.4365 57.342 47.0672 57.342C46.6897 57.3477 46.5139 57.1916 46.5139 56.9036Z" fill="white"/>
<path d="M48.0755 57.3276V56.0239H48.3649V57.3276H48.0755Z" fill="white"/>
<path d="M48.5521 57.3276V56.0239H48.8605L49.2793 56.6774L49.3878 56.8527H49.4069L49.4031 56.6774V56.0239H49.6924V57.3276H49.384L48.9804 56.7106L48.8535 56.5103H48.8345L48.8383 56.7106V57.3276H48.5521Z" fill="white"/>
<path d="M50.2407 57.3276V56.0239H50.735C51.15 56.0239 51.4044 56.2671 51.4044 56.6761C51.4044 57.085 51.1506 57.3276 50.735 57.3276H50.2407ZM50.5307 56.2863V57.0652H50.7312C50.9933 57.0652 51.0941 56.9852 51.0941 56.6761C51.0941 56.367 50.9933 56.2863 50.7312 56.2863H50.5307Z" fill="white"/>
<path d="M51.5301 56.8201V56.0239H51.8175V56.8156C51.8175 57.0025 51.881 57.0652 52.0974 57.0652C52.3138 57.0652 52.3753 57.0012 52.3753 56.8156V56.0239H52.6647V56.8201C52.6647 57.1446 52.4743 57.3474 52.0974 57.3474C51.7205 57.3474 51.5301 57.1446 51.5301 56.8201Z" fill="white"/>
<path d="M52.8449 57.3276V56.0239H53.4795C53.7555 56.0239 53.904 56.1231 53.904 56.349C53.904 56.5046 53.8171 56.605 53.6457 56.6268V56.6466C53.8539 56.662 53.956 56.7945 53.956 56.9666C53.956 57.1862 53.8056 57.3244 53.5118 57.3244L52.8449 57.3276ZM53.1343 56.5398H53.4623C53.5702 56.5398 53.6165 56.5161 53.6165 56.4118C53.6165 56.3074 53.5683 56.2838 53.4623 56.2838H53.1343V56.5398ZM53.1343 57.0652H53.5029C53.6089 57.0652 53.6667 57.0454 53.6667 56.9231C53.6667 56.8009 53.6108 56.7772 53.5029 56.7772H53.1343V57.0652Z" fill="white"/>
<path d="M53.9776 57.3276L54.4542 56.0239H54.8749L55.3514 57.3276H55.0373L54.9332 57.0377H54.385L54.279 57.3276H53.9776ZM54.4795 56.7772H54.8387L54.7651 56.5756L54.6705 56.2818H54.6515L54.5525 56.5756L54.4795 56.7772Z" fill="white"/>
<path d="M55.4117 57.3276V56.0239H55.7011V57.3276H55.4117Z" fill="white"/>
<path d="M70.8157 52.7256L72.39 53.7048L72.0689 54.0517L71.3772 53.5909L70.8956 53.2267L70.8753 53.2491L71.2364 53.7425L71.6882 54.4625L71.2948 54.8875L70.5555 54.4862L70.0364 54.1547L70.0161 54.1765L70.4127 54.6398L70.9121 55.3009L70.598 55.6401L69.5193 54.1221L69.9235 53.6849L70.6608 54.0773L71.1634 54.3825L71.1818 54.3621L70.8455 53.8776L70.4057 53.1646L70.8157 52.7256Z" fill="white"/>
<path d="M69.2064 54.4277L70.4444 55.7634L69.4349 56.7157L69.1855 56.4469L69.8987 55.7736L69.6563 55.5125L68.9729 56.1576L68.7248 55.8908L69.4088 55.2456L69.1595 54.9756L68.4456 55.6482L68.1962 55.3794L69.2064 54.4277Z" fill="white"/>
<path d="M68.2711 56.5343C68.6258 56.9785 68.5998 57.4764 68.1702 57.8259C67.7507 58.167 67.3586 58.142 67.0914 57.8041L67.0825 57.7932L67.4176 57.5212L67.4246 57.5295C67.5673 57.7081 67.7025 57.6998 67.9322 57.5129C68.1746 57.3158 68.2044 57.1443 67.936 56.8089C67.6676 56.4735 67.4855 56.4665 67.2202 56.6809C66.9969 56.862 66.9283 56.9811 67.0641 57.1507L67.45 56.8377L67.6625 57.1033L66.9715 57.6639L66.3674 56.9087L66.6599 56.6707L66.8332 56.8876L66.8459 56.8774C66.8014 56.7347 66.8097 56.5139 67.0603 56.3103C67.4645 55.9814 67.9081 56.0799 68.2711 56.5343Z" fill="white"/>
<path d="M66.1923 57.0366L67.2494 58.5233L66.125 59.3361L65.9124 59.0366L66.7062 58.4606L66.5 58.1701L65.7385 58.7205L65.5272 58.4229L66.2887 57.8725L66.0755 57.5729L65.281 58.1489L65.0685 57.8494L66.1923 57.0366Z" fill="white"/>
<path d="M64.5081 58.2173L65.2886 59.4467L65.7811 59.1267L65.9784 59.4365L64.6541 60.2966L64.4567 59.9862L64.9492 59.6662L64.1674 58.4374L64.5081 58.2173Z" fill="white"/>
<path d="M62.6406 59.3496L62.9541 59.9294L64.1287 60.6149L63.7244 60.837L63.2473 60.5522L62.9807 60.3902L62.9573 60.4037L62.9497 60.7154L62.9281 61.2741L62.5308 61.4923L62.5975 60.1253L62.284 59.5454L62.6406 59.3496Z" fill="white"/>
<path d="M62.1793 60.6467C62.4223 61.1587 62.2827 61.64 61.7935 61.8749C61.3042 62.1097 60.8512 61.9165 60.6075 61.4013C60.3638 60.8861 60.5021 60.4093 60.9882 60.1744C61.4743 59.9395 61.9337 60.1315 62.1793 60.6467ZM60.9984 61.2138C61.1811 61.5977 61.3436 61.6528 61.6247 61.5178C61.9058 61.3827 61.9705 61.2214 61.7878 60.8342C61.605 60.447 61.4407 60.3965 61.1596 60.5315C60.8784 60.6666 60.8144 60.8266 60.9965 61.2138H60.9984Z" fill="white"/>
<path d="M60.3327 61.2989L60.7477 62.3357L60.3733 62.488L59.9583 61.4563C59.8612 61.2138 59.7432 61.1677 59.4653 61.281C59.1873 61.3943 59.1359 61.5088 59.2337 61.752L59.6461 62.7818L59.2698 62.9354L58.8555 61.9005C58.686 61.4775 58.8288 61.1133 59.3181 60.9143C59.8073 60.7152 60.1633 60.8765 60.3327 61.2989Z" fill="white"/>
<path d="M58.2253 62.3465C58.3967 62.8905 58.1981 63.343 57.6796 63.5087C57.1612 63.6745 56.8084 63.4902 56.6719 63.0607L56.665 63.0371L57.0774 62.9052L57.0819 62.918C57.1606 63.1683 57.2906 63.2207 57.5641 63.1331C57.8554 63.0403 57.9449 62.895 57.8129 62.4809C57.6809 62.0668 57.528 61.9996 57.2367 62.0931C56.9632 62.1801 56.8871 62.2991 56.9657 62.5487L56.9696 62.5615L56.5571 62.694L56.5495 62.6703C56.4137 62.2383 56.6047 61.8799 57.1155 61.7161C57.6263 61.5523 58.0546 61.8025 58.2253 62.3465Z" fill="white"/>
<path d="M56.4175 62.9186C56.5545 63.4722 56.3242 63.9132 55.7988 64.0457C55.2734 64.1781 54.8672 63.8985 54.7295 63.3455C54.5918 62.7925 54.8203 62.3516 55.3451 62.2191C55.8699 62.0866 56.2779 62.3657 56.4175 62.9186ZM55.1484 63.2386C55.2518 63.654 55.4022 63.7372 55.7023 63.661C56.0025 63.5849 56.0996 63.4402 55.9961 63.021C55.8927 62.6018 55.7423 62.5225 55.4396 62.5993C55.1369 62.6761 55.0462 62.8233 55.1496 63.2393L55.1484 63.2386Z" fill="white"/>
<path d="M53.8989 62.5757L54.8825 64.2486L54.4332 64.3344L53.7257 63.0755L53.699 63.08L53.5048 64.5117L53.0607 64.5968L53.3697 62.6768L53.8989 62.5757Z" fill="white"/>
<path d="M52.6476 62.8047L52.8855 64.6178L51.5149 64.8008L51.4666 64.4354L52.435 64.3074L52.3887 63.9528L51.4603 64.077L51.4127 63.7148L52.3436 63.5893L52.296 63.2239L51.327 63.3519L51.2788 62.9864L52.6476 62.8047Z" fill="white"/>
<path d="M51.0884 63.0088L51.2299 64.8321L50.3987 64.8961C49.9665 64.9301 49.7108 64.7477 49.6835 64.3937C49.6607 64.0968 49.7927 63.9086 50.1011 63.8568V63.8299C49.9412 63.7928 49.858 63.7019 49.7768 63.5739L49.5122 63.1342L49.9843 63.0971L50.2305 63.5022C50.3238 63.6539 50.3828 63.7173 50.5744 63.7025L50.7363 63.6897L50.6836 63.0395L51.0884 63.0088ZM50.7572 64.0257L50.313 64.0609C50.1226 64.0757 50.0662 64.1377 50.0801 64.3169C50.0941 64.4961 50.1601 64.5461 50.3492 64.5313L50.7934 64.4961L50.7572 64.0257Z" fill="white"/>
<path d="M49.4176 63.1338L49.464 64.9616L48.0813 64.9975L48.0717 64.6288L49.049 64.6039L49.0394 64.2467L48.1035 64.2704L48.0946 63.905L49.0306 63.8807L49.021 63.5127L48.0445 63.5376L48.0356 63.169L49.4176 63.1338Z" fill="white"/>
<path d="M47.8446 63.1713L47.7925 64.9998L47.1002 64.9793C46.5183 64.9627 46.1712 64.6113 46.1877 64.0385C46.2042 63.4657 46.5685 63.1348 47.1523 63.1515L47.8446 63.1713ZM47.3972 64.6196L47.4283 63.5278L47.1472 63.5201C46.7791 63.5092 46.6351 63.6174 46.623 64.0507C46.611 64.4839 46.7499 64.6004 47.1161 64.6113L47.3972 64.6196Z" fill="white"/>
<path d="M45.4789 63.9914C45.4199 64.5591 45.0525 64.8932 44.5144 64.8356C43.9763 64.778 43.6895 64.3742 43.7485 63.8071C43.8075 63.2401 44.1724 62.9054 44.7105 62.9623C45.2486 63.0193 45.5386 63.4238 45.4789 63.9914ZM44.1787 63.8532C44.1343 64.2794 44.246 64.4094 44.5556 64.442C44.8653 64.4746 45.0036 64.3722 45.0487 63.946C45.0937 63.5198 44.9789 63.3892 44.668 63.3566C44.357 63.3239 44.2212 63.427 44.1787 63.8532Z" fill="white"/>
<path d="M43.6774 62.8728L43.3773 64.6763L42.9502 64.604L42.5212 63.6018L42.4121 63.3343L42.3854 63.3298L42.3505 63.573L42.2002 64.4773L41.7997 64.4101L42.0993 62.606L42.5263 62.6783L42.94 63.6255L43.067 63.932L43.0936 63.9365L43.1342 63.6581L43.2764 62.805L43.6774 62.8728Z" fill="white"/>
<path d="M41.5002 62.4867L40.4139 64.0982L39.8428 63.9542L39.6302 62.0156L40.0585 62.1231L40.1029 62.5532L40.8485 62.7407L41.0903 62.3823L41.5002 62.4867ZM40.6322 63.0627L40.1435 62.9398L40.1753 63.2406L40.2051 63.6726L40.2317 63.679L40.464 63.3129L40.6322 63.0627Z" fill="white"/>
<path d="M39.5756 61.9913L39.0407 63.7391L38.653 63.6156L39.0794 62.2204L38.1846 61.942L38.2925 61.5894L39.5756 61.9913Z" fill="white"/>
<path d="M38.1929 61.5567L37.5755 63.2757L37.1947 63.1368L37.6852 61.7634L36.8051 61.4434L36.932 61.0972L38.1929 61.5567Z" fill="white"/>
<path d="M36.319 60.8477L35.5912 62.5213L34.3221 61.9587L34.4693 61.6215L35.364 62.0189L35.5068 61.6919L34.6495 61.3079L34.7961 60.9732L35.6528 61.3572L35.8 61.0199L34.9059 60.6224L35.0531 60.2852L36.319 60.8477Z" fill="white"/>
<path d="M34.5182 61.0455C34.2612 61.5537 33.7998 61.7329 33.3176 61.4852C32.8353 61.2375 32.7109 60.7563 32.9679 60.2481C33.1488 59.891 33.4299 59.6951 33.7459 59.6951L33.664 59.1479L34.1317 59.3918L34.1634 59.8091C34.6482 60.0555 34.7752 60.5374 34.5182 61.0455ZM33.3537 60.4465C33.1634 60.8305 33.2186 60.9899 33.4959 61.1326C33.7732 61.2753 33.9401 61.2292 34.1304 60.8471C34.3208 60.4651 34.2631 60.3025 33.9858 60.1598C33.7085 60.0171 33.5466 60.0651 33.3537 60.4465Z" fill="white"/>
<path d="M32.8829 59.9675L32.3213 60.9275L31.9742 60.724L32.532 59.764C32.664 59.5381 32.6284 59.4159 32.3695 59.2623C32.1106 59.1087 31.9888 59.1381 31.8581 59.364L31.2997 60.324L30.95 60.1166L31.511 59.1567C31.7401 58.7637 32.1138 58.6562 32.5688 58.9263C33.0238 59.1963 33.112 59.5752 32.8829 59.9675Z" fill="white"/>
<path d="M31.6766 58.4066L30.6943 59.9426L30.3535 59.7206L31.3352 58.1846L31.6766 58.4066Z" fill="white"/>
<path d="M31.1271 58.0555L30.0877 59.5544L29.4042 59.0718C29.087 58.8466 28.9911 58.4907 29.2227 58.1573C29.4544 57.8238 29.8167 57.7918 30.134 58.019L30.4843 58.2661L30.7926 57.8213L31.1271 58.0555ZM29.9645 59.0155L30.2774 58.5637L29.9138 58.3077C29.7609 58.1995 29.6771 58.2104 29.5527 58.3896C29.4283 58.5688 29.4474 58.6514 29.6003 58.7595L29.9645 59.0155Z" fill="white"/>
<path d="M29.7843 57.1127L28.651 58.5411L28.2068 58.1815L28.4886 57.3149L28.665 56.856L28.644 56.8387L28.2411 57.1152L27.4752 57.5914L27.031 57.2317L28.1637 55.8032L28.4809 56.0592L27.9447 56.7351L27.71 56.9962L27.7334 57.0154L28.0374 56.8023L28.7056 56.401L29.0901 56.7114L28.849 57.457L28.7119 57.8045L28.7329 57.8218L28.9283 57.5357L29.4645 56.8599L29.7843 57.1127Z" fill="white"/>
<path d="M27.9904 55.642L26.7708 56.9943L25.7485 56.0561L25.9941 55.7834L26.7162 56.4478L26.9548 56.1834L26.2632 55.5466L26.5075 55.2759L27.1998 55.9114L27.446 55.6388L26.722 54.9758L26.9682 54.7031L27.9904 55.642Z" fill="white"/>
<path d="M26.8298 54.5727L25.5366 55.8527L25.2326 55.541L25.4693 54.4754L25.5372 54.1945L25.5182 54.1746L25.3481 54.3513L24.6996 54.9913L24.4153 54.6994L25.7079 53.4194L26.0119 53.7311L25.7949 54.7429L25.7193 55.0661L25.7384 55.086L25.9332 54.885L26.5449 54.2783L26.8298 54.5727Z" fill="white"/>
<path d="M25.2758 52.9278L24.1901 53.8936L24.5765 54.3358L24.3024 54.5796L23.2604 53.3886L23.5346 53.1448L23.9216 53.5864L25.0074 52.6206L25.2758 52.9278Z" fill="white"/>
<path d="M24.1057 52.4844L24.0784 52.5061L23.8309 52.1919L23.8525 52.1753C24.0092 52.0473 24.0079 51.9564 23.8042 51.6978C23.6615 51.5161 23.5898 51.5001 23.4946 51.5762C23.3994 51.6524 23.3823 51.7042 23.5066 51.9295L23.6608 52.2169C23.829 52.5279 23.7827 52.7538 23.5618 52.9304C23.341 53.1071 23.0053 53.1148 22.6823 52.7039C22.3593 52.293 22.4361 51.957 22.7179 51.7311L22.735 51.7177L22.9844 52.0338L22.9609 52.0524C22.8124 52.1714 22.8124 52.2725 22.9793 52.4837C23.124 52.6681 23.2097 52.693 23.2966 52.622C23.3835 52.5509 23.3784 52.494 23.2795 52.302L23.1278 52.0082C22.9476 51.6613 23.0237 51.4322 23.2312 51.2671C23.4584 51.0853 23.7827 51.0751 24.1025 51.4821C24.4356 51.9039 24.4191 52.2329 24.1057 52.4844Z" fill="white"/>
</g>
<defs>
<clipPath id="clip0_521_346">
<rect width="94" height="65" fill="white" transform="translate(0.5)"/>
</clipPath>
</defs>
</svg>
