<svg width="445" height="98" viewBox="0 0 445 98" fill="none" xmlns="http://www.w3.org/2000/svg">
<path d="M387.961 96.4607C368.883 96.4607 354.846 92.334 345.848 84.0805C336.851 75.7437 332.352 64.0721 332.352 49.0658C332.352 34.2262 336.809 22.638 345.723 14.3012C354.721 5.96432 368.8 1.7959 387.961 1.7959C407.206 1.7959 421.286 5.96432 430.2 14.3012C439.197 22.638 443.696 34.2262 443.696 49.0658C443.696 64.1555 439.239 75.8271 430.325 84.0805C421.411 92.334 407.289 96.4607 387.961 96.4607ZM387.961 70.95C397.209 70.95 403.874 69.1993 407.956 65.6978C412.038 62.1129 414.079 56.569 414.079 49.0658C414.079 41.7294 412.038 36.2687 407.956 32.6839C403.874 29.0991 397.209 27.3066 387.961 27.3066C378.797 27.3066 372.174 29.0991 368.092 32.6839C364.01 36.2687 361.969 41.7294 361.969 49.0658C361.969 56.4856 364.01 61.9879 368.092 65.5727C372.174 69.1576 378.797 70.95 387.961 70.95Z" fill="white" fill-opacity="0.1"/>
<path d="M345.508 84.4473L345.51 84.449C354.64 92.8237 368.826 96.9607 387.961 96.9607C407.344 96.9607 421.616 92.8249 430.664 84.4474C439.705 76.0773 444.196 64.2586 444.196 49.0658C444.196 34.1192 439.661 22.3865 430.541 13.9356C421.493 5.4741 407.263 1.2959 387.961 1.2959C368.742 1.2959 354.513 5.47476 345.383 13.9344L345.382 13.936C336.345 22.3873 331.852 34.12 331.852 49.0658C331.852 64.1778 336.386 75.9953 345.508 84.4473ZM407.628 65.3203C403.682 68.7035 397.166 70.45 387.961 70.45C378.842 70.45 372.368 68.6625 368.422 65.197C364.483 61.7382 362.469 56.3967 362.469 49.0658C362.469 41.8203 364.482 36.5194 368.422 33.0596C372.368 29.5942 378.842 27.8066 387.961 27.8066C397.166 27.8066 403.68 29.5947 407.626 33.0596C411.566 36.5194 413.579 41.8203 413.579 49.0658C413.579 56.4809 411.564 61.8624 407.628 65.3203Z" stroke="white" stroke-opacity="0.2"/>
<path d="M269.001 43.4384H322.361V95.2102H300.368L297.743 73.0759C295.244 80.9959 290.787 86.8734 284.372 90.7083C277.957 94.5433 270.126 96.4607 260.878 96.4607C252.464 96.4607 244.966 94.585 238.385 90.8334C231.886 87.0818 226.763 81.7045 223.014 74.7016C219.348 67.6986 217.515 59.5285 217.515 50.1913C217.515 35.2683 221.972 23.4717 230.887 14.8014C239.801 6.13105 253.672 1.7959 272.5 1.7959C283.247 1.7959 292.703 3.54664 300.867 7.04811C309.115 10.5496 316.113 15.9685 321.862 23.305C318.113 25.2224 310.781 29.0574 299.868 34.8098L296.744 36.5605C293.494 33.3092 289.704 30.8915 285.372 29.3075C281.04 27.6401 276.457 26.8064 271.625 26.8064C263.628 26.8064 257.671 28.9323 253.755 33.1841C249.84 37.3525 247.882 42.5214 247.882 48.6906C247.882 55.3601 249.965 60.7374 254.13 64.8224C258.379 68.9075 264.836 70.95 273.5 70.95C277.249 70.95 280.873 70.4081 284.372 69.3243C287.954 68.2405 290.953 66.3647 293.369 63.6969H269.001V43.4384Z" fill="white" fill-opacity="0.1"/>
<path d="M269.001 42.9384H268.501V43.4384V63.6969V64.1969H269.001H292.195C289.992 66.355 287.338 67.9045 284.227 68.8457L284.224 68.8467C280.774 69.9153 277.2 70.45 273.5 70.45C264.906 70.45 258.598 68.4236 254.479 64.4637C250.424 60.4866 248.382 55.2458 248.382 48.6906C248.382 42.6376 250.299 37.5945 254.12 33.5265L254.123 33.5228C257.912 29.4085 263.712 27.3064 271.625 27.3064C276.399 27.3064 280.92 28.1297 285.192 29.7741L285.192 29.7742L285.2 29.7771C289.464 31.3362 293.192 33.7143 296.39 36.914L296.658 37.1819L296.988 36.9967L300.107 35.2491C311.017 29.4981 318.344 25.6656 322.089 23.7501L322.629 23.4739L322.255 22.9966C316.457 15.5966 309.392 10.1241 301.064 6.58822C292.826 3.05531 283.301 1.2959 272.5 1.2959C253.607 1.2959 239.584 5.64457 230.538 14.443C221.508 23.2259 217.015 35.1623 217.015 50.1913C217.015 59.5947 218.862 67.8471 222.571 74.9335L222.573 74.9376C226.363 82.0177 231.551 87.4654 238.135 91.2664L238.137 91.2678C244.802 95.067 252.387 96.9607 260.878 96.9607C270.195 96.9607 278.12 95.0286 284.629 91.1375C290.584 87.577 294.874 82.2884 297.504 75.3015L299.871 95.2691L299.923 95.7102H300.368H322.361H322.861V95.2102V43.4384V42.9384H322.361H269.001Z" stroke="white" stroke-opacity="0.2"/>
<path d="M151.821 96.4607C132.743 96.4607 118.705 92.334 109.707 84.0805C100.71 75.7437 96.2109 64.0721 96.2109 49.0658C96.2109 34.2262 100.668 22.638 109.582 14.3012C118.58 5.96432 132.659 1.7959 151.821 1.7959C171.065 1.7959 185.145 5.96432 194.059 14.3012C203.056 22.638 207.555 34.2262 207.555 49.0658C207.555 64.1555 203.098 75.8271 194.184 84.0805C185.27 92.334 171.149 96.4607 151.821 96.4607ZM151.821 70.95C161.068 70.95 167.733 69.1993 171.815 65.6978C175.897 62.1129 177.938 56.569 177.938 49.0658C177.938 41.7294 175.897 36.2687 171.815 32.6839C167.733 29.0991 161.068 27.3066 151.821 27.3066C142.656 27.3066 136.033 29.0991 131.951 32.6839C127.869 36.2687 125.828 41.7294 125.828 49.0658C125.828 56.4856 127.869 61.9879 131.951 65.5727C136.033 69.1576 142.656 70.95 151.821 70.95Z" fill="white" fill-opacity="0.1"/>
<path d="M109.367 84.4473L109.369 84.449C118.499 92.8237 132.685 96.9607 151.821 96.9607C171.204 96.9607 185.476 92.8249 194.524 84.4474C203.564 76.0773 208.055 64.2586 208.055 49.0658C208.055 34.1192 203.52 22.3865 194.4 13.9356C185.352 5.4741 171.122 1.2959 151.821 1.2959C132.601 1.2959 118.372 5.47476 109.242 13.9344L109.241 13.936C100.204 22.3873 95.7109 34.12 95.7109 49.0658C95.7109 64.1778 100.246 75.9953 109.367 84.4473ZM171.487 65.3203C167.541 68.7035 161.025 70.45 151.821 70.45C142.701 70.45 136.227 68.6625 132.281 65.197C128.342 61.7382 126.328 56.3967 126.328 49.0658C126.328 41.8203 128.341 36.5194 132.281 33.0596C136.227 29.5942 142.701 27.8066 151.821 27.8066C161.025 27.8066 167.54 29.5947 171.485 33.0596C175.425 36.5194 177.438 41.8203 177.438 49.0658C177.438 56.4809 175.423 61.8624 171.487 65.3203Z" stroke="white" stroke-opacity="0.2"/>
<path d="M32.4902 69.9495C56.6502 69.7827 76.6447 69.3659 92.4737 68.6989C91.3907 72.9507 90.7242 77.0358 90.4742 80.9541C90.2243 84.8724 90.0993 89.6244 90.0993 95.2101H1.99866C2.66514 79.0366 2.99838 63.9052 2.99838 49.816C2.99838 35.7267 2.66514 20.5954 1.99866 4.42188H32.4902V69.9495Z" fill="white" fill-opacity="0.1"/>
<path d="M92.4526 68.1994C76.7418 68.8614 56.9215 69.2769 32.9902 69.446V4.42188V3.92188H32.4902H1.99866H1.47763L1.49908 4.44246C2.16532 20.6101 2.49838 35.7345 2.49838 49.816C2.49838 63.8975 2.16532 79.0219 1.49908 95.1895L1.47763 95.7101H1.99866H90.0993H90.5993V95.2101C90.5993 89.631 90.7242 84.8903 90.9732 80.9859C91.221 77.1019 91.882 73.0476 92.9582 68.8224L93.1241 68.1711L92.4526 68.1994Z" stroke="white" stroke-opacity="0.2"/>
</svg>
