<svg width="1920" height="256" viewBox="0 0 1920 256" fill="none" xmlns="http://www.w3.org/2000/svg">
<g clip-path="url(#clip0_100_1826)">
<path d="M0 0V256H278.752L512.678 0H0Z" fill="white" fill-opacity="0.1" stroke="white" stroke-opacity="0.1"/>
<path d="M585.756 0L351.83 256H630.583L864.508 0H585.756Z" fill="white" fill-opacity="0.1" stroke="white" stroke-opacity="0.1"/>
<path d="M937.587 0L703.661 256H982.413L1216.34 0H937.587Z" fill="white" fill-opacity="0.1" stroke="white" stroke-opacity="0.1"/>
<path d="M1289.42 0L1055.49 256H1334.24L1568.17 0H1289.42Z" fill="white" fill-opacity="0.1" stroke="white" stroke-opacity="0.1"/>
<path d="M1641.25 0L1407.32 256H1686.07L1920 0H1641.25Z" fill="white" fill-opacity="0.1" stroke="white" stroke-opacity="0.1"/>
<path d="M1990.93 0L1757 256H2035.75L2269.68 0H1990.93Z" fill="white" fill-opacity="0.1" stroke="white" stroke-opacity="0.1"/>
<path d="M102.672 100.208H126.48V138.416C126.352 147.824 123.12 155.6 116.784 161.744C110.512 167.888 99.92 170.96 85.008 170.96C69.904 170.96 59.568 168.048 54 162.224C48.432 156.336 45.712 148.624 45.84 139.088V100.208H69.648V137.552C69.648 140.368 69.84 142.672 70.224 144.464C70.672 146.192 72.016 147.824 74.256 149.36C76.56 150.896 80.24 151.664 85.296 151.664C90.8 151.664 94.832 150.896 97.392 149.36C99.952 147.76 101.456 146 101.904 144.08C102.416 142.16 102.672 139.696 102.672 136.688V100.208ZM134.153 161.744C136.329 158.48 138.121 155.44 139.529 152.624C141.001 149.808 142.409 146.544 143.753 142.832C148.297 145.456 153.577 147.504 159.593 148.976C165.609 150.448 171.209 151.184 176.393 151.184C181.705 151.184 185.449 150.736 187.625 149.84C189.801 148.88 190.889 147.856 190.889 146.768C190.889 142.864 184.937 140.912 173.033 140.912C159.977 140.912 150.505 139.568 144.617 136.88C138.729 134.128 135.785 129.712 135.785 123.632C135.785 114.992 139.369 108.624 146.537 104.528C153.705 100.432 163.017 98.384 174.473 98.384C181.129 98.384 187.945 99.248 194.921 100.976C201.961 102.64 208.297 104.944 213.929 107.888C212.073 112.112 210.121 117.264 208.073 123.344C207.689 124.624 207.369 125.584 207.113 126.224C203.849 123.6 198.921 121.424 192.329 119.696C185.737 117.904 179.913 117.008 174.857 117.008C168.777 117.008 164.681 117.424 162.569 118.256C160.457 119.024 159.401 120.176 159.401 121.712C159.401 123.248 160.841 124.496 163.721 125.456C166.665 126.352 170.889 126.8 176.393 126.8C189.961 126.8 199.817 128.368 205.961 131.504C212.105 134.576 215.177 139.312 215.177 145.712C215.177 154.672 211.913 161.136 205.385 165.104C198.857 169.008 188.969 170.96 175.721 170.96C168.617 170.96 161.385 170.192 154.025 168.656C146.665 167.056 140.041 164.752 134.153 161.744ZM245.496 152.432C269.816 152.304 287.448 151.952 298.392 151.376C297.944 154 297.656 156.72 297.528 159.536C297.464 162.288 297.432 165.776 297.432 170H222.84C223.352 157.584 223.608 145.968 223.608 135.152C223.608 124.336 223.352 112.72 222.84 100.304H297.432V117.68H245.496V126.896C248.568 126.96 253.112 126.992 259.128 126.992C269.304 126.992 279.832 126.8 290.712 126.416V142.928C279.832 142.544 269.304 142.352 259.128 142.352C253.112 142.352 248.568 142.384 245.496 142.448V152.432ZM368.893 100.4C381.629 100.4 390.493 102.672 395.485 107.216C400.477 111.696 402.973 118.032 402.973 126.224C402.973 131.856 401.981 136.656 399.997 140.624C398.013 144.528 394.525 147.6 389.533 149.84C384.541 152.016 377.661 153.104 368.893 153.104H348.925V170H325.309C325.821 157.584 326.077 145.968 326.077 135.152C326.077 124.336 325.821 112.72 325.309 100.304H348.925V100.4H368.893ZM362.173 134.576C367.485 134.576 371.453 134.384 374.077 134C376.765 133.552 378.621 132.784 379.645 131.696C380.733 130.608 381.277 129.008 381.277 126.896C381.277 124.784 380.765 123.216 379.741 122.192C378.781 121.104 376.957 120.368 374.269 119.984C371.645 119.6 367.613 119.408 362.173 119.408H348.925V134.576H362.173ZM487.709 123.536C487.709 129.104 486.333 133.808 483.581 137.648C480.893 141.488 476.253 144.272 469.661 146C470.429 147.024 470.973 147.824 471.293 148.4L486.845 170H460.733C457.917 164.752 453.469 157.328 447.389 147.728H433.277V170H410.621C411.133 157.584 411.389 145.968 411.389 135.152C411.389 124.336 411.133 112.72 410.621 100.304H433.277V100.4H452.957C465.885 100.4 474.909 102.48 480.029 106.64C485.149 110.8 487.709 116.432 487.709 123.536ZM433.277 118.832V129.776H446.237C451.677 129.776 455.773 129.616 458.525 129.296C461.341 128.912 463.293 128.336 464.381 127.568C465.469 126.8 466.013 125.68 466.013 124.208C466.013 122.8 465.501 121.712 464.477 120.944C463.453 120.176 461.533 119.632 458.717 119.312C455.901 118.992 451.741 118.832 446.237 118.832H433.277ZM538.091 170.96C523.435 170.96 512.651 167.792 505.739 161.456C498.827 155.056 495.371 146.096 495.371 134.576C495.371 123.184 498.795 114.288 505.643 107.888C512.555 101.488 523.371 98.288 538.091 98.288C552.875 98.288 563.691 101.488 570.539 107.888C577.451 114.288 580.907 123.184 580.907 134.576C580.907 146.16 577.483 155.12 570.635 161.456C563.787 167.792 552.939 170.96 538.091 170.96ZM538.091 151.376C545.195 151.376 550.315 150.032 553.451 147.344C556.587 144.592 558.155 140.336 558.155 134.576C558.155 128.944 556.587 124.752 553.451 122C550.315 119.248 545.195 117.872 538.091 117.872C531.051 117.872 525.963 119.248 522.827 122C519.691 124.752 518.123 128.944 518.123 134.576C518.123 140.272 519.691 144.496 522.827 147.248C525.963 150 531.051 151.376 538.091 151.376ZM597.775 170.96C594.959 170.96 592.559 169.968 590.575 167.984C588.591 165.936 587.599 163.504 587.599 160.688C587.599 157.872 588.591 155.472 590.575 153.488C592.559 151.504 594.959 150.512 597.775 150.512C600.527 150.512 602.895 151.536 604.879 153.584C606.927 155.568 607.951 157.936 607.951 160.688C607.951 163.504 606.927 165.936 604.879 167.984C602.895 169.968 600.527 170.96 597.775 170.96Z" fill="#585858"/>
<path d="M736.096 135.344C750.688 135.344 757.984 139.984 757.984 149.264C757.984 153.616 756.992 157.328 755.008 160.4C753.024 163.408 749.472 165.776 744.352 167.504C739.232 169.168 732.128 170 723.04 170H679.84C680.352 157.584 680.608 145.968 680.608 135.152C680.608 124.336 680.352 112.72 679.84 100.304H702.4V100.4H722.848C730.784 100.4 737.024 101.072 741.568 102.416C746.176 103.696 749.408 105.584 751.264 108.08C753.184 110.576 754.144 113.744 754.144 117.584C754.144 121.488 752.768 124.976 750.016 128.048C747.328 131.056 742.688 133.488 736.096 135.344ZM702.4 117.872V126.8H720.832C724.8 126.8 727.552 126.448 729.088 125.744C730.688 125.04 731.488 123.76 731.488 121.904C731.488 120.432 730.656 119.408 728.992 118.832C727.392 118.192 724.672 117.872 720.832 117.872H702.4ZM720.832 152.432C724.16 152.432 726.688 152.304 728.416 152.048C730.208 151.728 731.488 151.216 732.256 150.512C733.024 149.744 733.408 148.72 733.408 147.44C733.408 145.776 732.48 144.592 730.624 143.888C728.832 143.12 725.568 142.736 720.832 142.736H702.4V152.432H720.832ZM788.277 152.432C812.597 152.304 830.229 151.952 841.173 151.376C840.725 154 840.437 156.72 840.309 159.536C840.245 162.288 840.213 165.776 840.213 170H765.621C766.133 157.584 766.389 145.968 766.389 135.152C766.389 124.336 766.133 112.72 765.621 100.304H840.213V117.68H788.277V126.896C791.349 126.96 795.893 126.992 801.909 126.992C812.085 126.992 822.613 126.8 833.493 126.416V142.928C822.613 142.544 812.085 142.352 801.909 142.352C795.893 142.352 791.349 142.384 788.277 142.448V152.432ZM950.554 120.464C940.506 120.144 930.746 119.952 921.274 119.888V170H897.274V119.888C887.738 119.952 878.01 120.144 868.09 120.464V100.304H950.554V120.464ZM1038.73 100.304C1038.28 111.12 1038.05 122.736 1038.05 135.152C1038.05 147.568 1038.28 159.184 1038.73 170H1016.17V143.888H980.838V170H958.278C958.79 157.584 959.046 145.968 959.046 135.152C959.046 124.336 958.79 112.72 958.278 100.304H980.838V126.416H1016.17V100.304H1038.73ZM1069.06 152.432C1093.38 152.304 1111.01 151.952 1121.95 151.376C1121.51 154 1121.22 156.72 1121.09 159.536C1121.03 162.288 1120.99 165.776 1120.99 170H1046.4C1046.91 157.584 1047.17 145.968 1047.17 135.152C1047.17 124.336 1046.91 112.72 1046.4 100.304H1120.99V117.68H1069.06V126.896C1072.13 126.96 1076.67 126.992 1082.69 126.992C1092.87 126.992 1103.39 126.8 1114.27 126.416V142.928C1103.39 142.544 1092.87 142.352 1082.69 142.352C1076.67 142.352 1072.13 142.384 1069.06 142.448V152.432ZM1192.46 100.4C1205.19 100.4 1214.06 102.672 1219.05 107.216C1224.04 111.696 1226.54 118.032 1226.54 126.224C1226.54 131.856 1225.54 136.656 1223.56 140.624C1221.58 144.528 1218.09 147.6 1213.1 149.84C1208.1 152.016 1201.22 153.104 1192.46 153.104H1172.49V170H1148.87C1149.38 157.584 1149.64 145.968 1149.64 135.152C1149.64 124.336 1149.38 112.72 1148.87 100.304H1172.49V100.4H1192.46ZM1185.74 134.576C1191.05 134.576 1195.02 134.384 1197.64 134C1200.33 133.552 1202.18 132.784 1203.21 131.696C1204.3 130.608 1204.84 129.008 1204.84 126.896C1204.84 124.784 1204.33 123.216 1203.3 122.192C1202.34 121.104 1200.52 120.368 1197.83 119.984C1195.21 119.6 1191.18 119.408 1185.74 119.408H1172.49V134.576H1185.74ZM1311.27 123.536C1311.27 129.104 1309.9 133.808 1307.14 137.648C1304.46 141.488 1299.82 144.272 1293.22 146C1293.99 147.024 1294.54 147.824 1294.86 148.4L1310.41 170H1284.3C1281.48 164.752 1277.03 157.328 1270.95 147.728H1256.84V170H1234.18C1234.7 157.584 1234.95 145.968 1234.95 135.152C1234.95 124.336 1234.7 112.72 1234.18 100.304H1256.84V100.4H1276.52C1289.45 100.4 1298.47 102.48 1303.59 106.64C1308.71 110.8 1311.27 116.432 1311.27 123.536ZM1256.84 118.832V129.776H1269.8C1275.24 129.776 1279.34 129.616 1282.09 129.296C1284.9 128.912 1286.86 128.336 1287.94 127.568C1289.03 126.8 1289.58 125.68 1289.58 124.208C1289.58 122.8 1289.06 121.712 1288.04 120.944C1287.02 120.176 1285.1 119.632 1282.28 119.312C1279.46 118.992 1275.3 118.832 1269.8 118.832H1256.84ZM1361.65 170.96C1347 170.96 1336.21 167.792 1329.3 161.456C1322.39 155.056 1318.93 146.096 1318.93 134.576C1318.93 123.184 1322.36 114.288 1329.21 107.888C1336.12 101.488 1346.93 98.288 1361.65 98.288C1376.44 98.288 1387.25 101.488 1394.1 107.888C1401.01 114.288 1404.47 123.184 1404.47 134.576C1404.47 146.16 1401.05 155.12 1394.2 161.456C1387.35 167.792 1376.5 170.96 1361.65 170.96ZM1361.65 151.376C1368.76 151.376 1373.88 150.032 1377.01 147.344C1380.15 144.592 1381.72 140.336 1381.72 134.576C1381.72 128.944 1380.15 124.752 1377.01 122C1373.88 119.248 1368.76 117.872 1361.65 117.872C1354.61 117.872 1349.53 119.248 1346.39 122C1343.25 124.752 1341.69 128.944 1341.69 134.576C1341.69 140.272 1343.25 144.496 1346.39 147.248C1349.53 150 1354.61 151.376 1361.65 151.376ZM1421.34 170.96C1418.52 170.96 1416.12 169.968 1414.14 167.984C1412.15 165.936 1411.16 163.504 1411.16 160.688C1411.16 157.872 1412.15 155.472 1414.14 153.488C1416.12 151.504 1418.52 150.512 1421.34 150.512C1424.09 150.512 1426.46 151.536 1428.44 153.584C1430.49 155.568 1431.51 157.936 1431.51 160.688C1431.51 163.504 1430.49 165.936 1428.44 167.984C1426.46 169.968 1424.09 170.96 1421.34 170.96Z" fill="#585858"/>
<path d="M1560.67 100.208H1584.48V138.416C1584.35 147.824 1581.12 155.6 1574.78 161.744C1568.51 167.888 1557.92 170.96 1543.01 170.96C1527.9 170.96 1517.57 168.048 1512 162.224C1506.43 156.336 1503.71 148.624 1503.84 139.088V100.208H1527.65V137.552C1527.65 140.368 1527.84 142.672 1528.22 144.464C1528.67 146.192 1530.02 147.824 1532.26 149.36C1534.56 150.896 1538.24 151.664 1543.3 151.664C1548.8 151.664 1552.83 150.896 1555.39 149.36C1557.95 147.76 1559.46 146 1559.9 144.08C1560.42 142.16 1560.67 139.696 1560.67 136.688V100.208ZM1592.15 161.744C1594.33 158.48 1596.12 155.44 1597.53 152.624C1599 149.808 1600.41 146.544 1601.75 142.832C1606.3 145.456 1611.58 147.504 1617.59 148.976C1623.61 150.448 1629.21 151.184 1634.39 151.184C1639.7 151.184 1643.45 150.736 1645.62 149.84C1647.8 148.88 1648.89 147.856 1648.89 146.768C1648.89 142.864 1642.94 140.912 1631.03 140.912C1617.98 140.912 1608.5 139.568 1602.62 136.88C1596.73 134.128 1593.78 129.712 1593.78 123.632C1593.78 114.992 1597.37 108.624 1604.54 104.528C1611.7 100.432 1621.02 98.384 1632.47 98.384C1639.13 98.384 1645.94 99.248 1652.92 100.976C1659.96 102.64 1666.3 104.944 1671.93 107.888C1670.07 112.112 1668.12 117.264 1666.07 123.344C1665.69 124.624 1665.37 125.584 1665.11 126.224C1661.85 123.6 1656.92 121.424 1650.33 119.696C1643.74 117.904 1637.91 117.008 1632.86 117.008C1626.78 117.008 1622.68 117.424 1620.57 118.256C1618.46 119.024 1617.4 120.176 1617.4 121.712C1617.4 123.248 1618.84 124.496 1621.72 125.456C1624.66 126.352 1628.89 126.8 1634.39 126.8C1647.96 126.8 1657.82 128.368 1663.96 131.504C1670.1 134.576 1673.18 139.312 1673.18 145.712C1673.18 154.672 1669.91 161.136 1663.38 165.104C1656.86 169.008 1646.97 170.96 1633.72 170.96C1626.62 170.96 1619.38 170.192 1612.02 168.656C1604.66 167.056 1598.04 164.752 1592.15 161.744ZM1703.5 152.432C1727.82 152.304 1745.45 151.952 1756.39 151.376C1755.94 154 1755.66 156.72 1755.53 159.536C1755.46 162.288 1755.43 165.776 1755.43 170H1680.84C1681.35 157.584 1681.61 145.968 1681.61 135.152C1681.61 124.336 1681.35 112.72 1680.84 100.304H1755.43V117.68H1703.5V126.896C1706.57 126.96 1711.11 126.992 1717.13 126.992C1727.3 126.992 1737.83 126.8 1748.71 126.416V142.928C1737.83 142.544 1727.3 142.352 1717.13 142.352C1711.11 142.352 1706.57 142.384 1703.5 142.448V152.432ZM1826.89 100.4C1839.63 100.4 1848.49 102.672 1853.48 107.216C1858.48 111.696 1860.97 118.032 1860.97 126.224C1860.97 131.856 1859.98 136.656 1858 140.624C1856.01 144.528 1852.52 147.6 1847.53 149.84C1842.54 152.016 1835.66 153.104 1826.89 153.104H1806.92V170H1783.31C1783.82 157.584 1784.08 145.968 1784.08 135.152C1784.08 124.336 1783.82 112.72 1783.31 100.304H1806.92V100.4H1826.89ZM1820.17 134.576C1825.48 134.576 1829.45 134.384 1832.08 134C1834.76 133.552 1836.62 132.784 1837.64 131.696C1838.73 130.608 1839.28 129.008 1839.28 126.896C1839.28 124.784 1838.76 123.216 1837.74 122.192C1836.78 121.104 1834.96 120.368 1832.27 119.984C1829.64 119.6 1825.61 119.408 1820.17 119.408H1806.92V134.576H1820.17ZM1945.71 123.536C1945.71 129.104 1944.33 133.808 1941.58 137.648C1938.89 141.488 1934.25 144.272 1927.66 146C1928.43 147.024 1928.97 147.824 1929.29 148.4L1944.85 170H1918.73C1915.92 164.752 1911.47 157.328 1905.39 147.728H1891.28V170H1868.62C1869.13 157.584 1869.39 145.968 1869.39 135.152C1869.39 124.336 1869.13 112.72 1868.62 100.304H1891.28V100.4H1910.96C1923.89 100.4 1932.91 102.48 1938.03 106.64C1943.15 110.8 1945.71 116.432 1945.71 123.536ZM1891.28 118.832V129.776H1904.24C1909.68 129.776 1913.77 129.616 1916.53 129.296C1919.34 128.912 1921.29 128.336 1922.38 127.568C1923.47 126.8 1924.01 125.68 1924.01 124.208C1924.01 122.8 1923.5 121.712 1922.48 120.944C1921.45 120.176 1919.53 119.632 1916.72 119.312C1913.9 118.992 1909.74 118.832 1904.24 118.832H1891.28ZM1996.09 170.96C1981.44 170.96 1970.65 167.792 1963.74 161.456C1956.83 155.056 1953.37 146.096 1953.37 134.576C1953.37 123.184 1956.8 114.288 1963.64 107.888C1970.56 101.488 1981.37 98.288 1996.09 98.288C2010.88 98.288 2021.69 101.488 2028.54 107.888C2035.45 114.288 2038.91 123.184 2038.91 134.576C2038.91 146.16 2035.48 155.12 2028.64 161.456C2021.79 167.792 2010.94 170.96 1996.09 170.96ZM1996.09 151.376C2003.2 151.376 2008.32 150.032 2011.45 147.344C2014.59 144.592 2016.16 140.336 2016.16 134.576C2016.16 128.944 2014.59 124.752 2011.45 122C2008.32 119.248 2003.2 117.872 1996.09 117.872C1989.05 117.872 1983.96 119.248 1980.83 122C1977.69 124.752 1976.12 128.944 1976.12 134.576C1976.12 140.272 1977.69 144.496 1980.83 147.248C1983.96 150 1989.05 151.376 1996.09 151.376ZM2055.77 170.96C2052.96 170.96 2050.56 169.968 2048.57 167.984C2046.59 165.936 2045.6 163.504 2045.6 160.688C2045.6 157.872 2046.59 155.472 2048.57 153.488C2050.56 151.504 2052.96 150.512 2055.77 150.512C2058.53 150.512 2060.89 151.536 2062.88 153.584C2064.93 155.568 2065.95 157.936 2065.95 160.688C2065.95 163.504 2064.93 165.936 2062.88 167.984C2060.89 169.968 2058.53 170.96 2055.77 170.96Z" fill="#585858"/>
</g>
<defs>
<clipPath id="clip0_100_1826">
<rect width="1920" height="256" fill="white"/>
</clipPath>
</defs>
</svg>
