<svg width="58" height="60" viewBox="0 0 58 60" fill="none" xmlns="http://www.w3.org/2000/svg">
<path d="M2.5174 45.4698C0.90503 42.6696 0.469185 39.3443 1.30548 36.2232C2.14177 33.1021 4.18191 30.4402 6.97833 28.8214L15.0324 24.1714C15.706 23.7256 25.2401 17.1954 30.146 3.72708C30.4509 2.88874 30.9886 2.15479 31.6961 1.61144C32.4036 1.06809 33.2514 0.737901 34.1401 0.659645C35.0287 0.581389 35.9212 0.758319 36.7127 1.16965C37.5043 1.58099 38.162 2.20965 38.6087 2.98181L57.3587 35.4578C57.8102 36.2284 58.0296 37.1129 57.9908 38.0051C57.952 38.8974 57.6565 39.7595 57.1398 40.488C56.6307 41.2225 55.9208 41.795 55.095 42.1369C54.2693 42.4788 53.3625 42.5757 52.4831 42.4161C45.2518 41.1343 37.8171 41.6331 30.8219 43.8696L33.8922 49.1875C34.278 49.8556 34.493 50.6086 34.5181 51.3797C34.5431 52.1509 34.3774 52.9162 34.0357 53.608C33.9807 53.7207 33.9177 53.8294 33.8473 53.9332L31.7437 57.0584C31.3892 57.6955 30.891 58.2411 30.2886 58.6519C29.6863 59.0626 28.9964 59.3272 28.2739 59.4246C27.5514 59.522 26.8161 59.4495 26.1264 59.2129C25.4368 58.9763 24.8119 58.5821 24.3014 58.0617L17.1496 50.8729C14.4635 51.8217 11.5301 51.8009 8.85765 50.814C6.18526 49.8272 3.94228 47.9366 2.5174 45.4698ZM51.5065 36.5714L34.7217 7.4993C30.6696 17.4355 24.5379 23.6901 20.9301 26.7365L27.9543 38.9028C32.3918 37.2934 40.8743 35.1105 51.5065 36.5714ZM27.4971 53.2938L28.7196 51.4784L25.661 46.1807L22.3322 48.1026L27.4971 53.2938ZM16.3533 45.0593L22.8485 41.3093L16.286 29.9427L9.79084 33.6927C8.28353 34.563 7.18367 35.9964 6.73319 37.6775C6.28273 39.3587 6.51855 41.15 7.38879 42.6573C8.25904 44.1646 9.69241 45.2645 11.3736 45.7149C13.0548 46.1654 14.846 45.9296 16.3533 45.0593Z" fill="white"/>
</svg>
