<svg width="112" height="112" viewBox="0 0 112 112" fill="none" xmlns="http://www.w3.org/2000/svg">
<g filter="url(#filter0_b_306_3204)">
<path d="M43.5 47.5C43.5 47.1022 43.658 46.7206 43.9393 46.4393C44.2206 46.158 44.6022 46 45 46H67C67.3978 46 67.7794 46.158 68.0607 46.4393C68.342 46.7206 68.5 47.1022 68.5 47.5C68.5 47.8978 68.342 48.2794 68.0607 48.5607C67.7794 48.842 67.3978 49 67 49H45C44.6022 49 44.2206 48.842 43.9393 48.5607C43.658 48.2794 43.5 47.8978 43.5 47.5ZM67 54H45C44.6022 54 44.2206 54.158 43.9393 54.4393C43.658 54.7206 43.5 55.1022 43.5 55.5C43.5 55.8978 43.658 56.2794 43.9393 56.5607C44.2206 56.842 44.6022 57 45 57H67C67.3978 57 67.7794 56.842 68.0607 56.5607C68.342 56.2794 68.5 55.8978 68.5 55.5C68.5 55.1022 68.342 54.7206 68.0607 54.4393C67.7794 54.158 67.3978 54 67 54ZM67 62H45C44.6022 62 44.2206 62.158 43.9393 62.4393C43.658 62.7206 43.5 63.1022 43.5 63.5C43.5 63.8978 43.658 64.2794 43.9393 64.5607C44.2206 64.842 44.6022 65 45 65H67C67.3978 65 67.7794 64.842 68.0607 64.5607C68.342 64.2794 68.5 63.8978 68.5 63.5C68.5 63.1022 68.342 62.7206 68.0607 62.4393C67.7794 62.158 67.3978 62 67 62Z" fill="white"/>
</g>
<defs>
<filter id="filter0_b_306_3204" x="-29" y="-29" width="170" height="170" filterUnits="userSpaceOnUse" color-interpolation-filters="sRGB">
<feFlood flood-opacity="0" result="BackgroundImageFix"/>
<feGaussianBlur in="BackgroundImageFix" stdDeviation="14.5"/>
<feComposite in2="SourceAlpha" operator="in" result="effect1_backgroundBlur_306_3204"/>
<feBlend mode="normal" in="SourceGraphic" in2="effect1_backgroundBlur_306_3204" result="shape"/>
</filter>
</defs>
</svg>
