<svg width="47" height="42" viewBox="0 0 47 42" fill="none" xmlns="http://www.w3.org/2000/svg">
<path d="M46.0937 2.75C46.0937 2.1284 45.8468 1.53226 45.4073 1.09272C44.9677 0.65318 44.3716 0.40625 43.75 0.40625C35.0039 0.40625 26.1719 9.88672 21.1133 16.4219C19.2656 15.9448 17.3333 15.8971 15.4643 16.2824C13.5954 16.6677 11.8394 17.4758 10.3311 18.6448C8.82282 19.8137 7.60216 21.3125 6.76271 23.0262C5.92326 24.7399 5.48731 26.623 5.48828 28.5312C5.48828 30.875 4.88281 32.9668 3.68554 34.7344C3.1828 35.5007 2.558 36.1796 1.83593 36.7441C1.41495 37.0174 1.09393 37.4198 0.921029 37.891C0.748123 38.3622 0.732656 38.8767 0.876948 39.3574C1.0243 39.8438 1.32486 40.2695 1.73384 40.5711C2.14281 40.8727 2.63831 41.0341 3.14648 41.0312H17.9902C19.8967 41.0289 21.7773 40.5906 23.4883 39.7497C25.1993 38.9089 26.6953 37.6878 27.8618 36.1799C29.0284 34.672 29.8345 32.9173 30.2187 31.05C30.6028 29.1826 30.5547 27.2522 30.0781 25.4062C36.6191 20.3379 46.0937 11.5 46.0937 2.75ZM40.9414 5.56055C40.1601 8.08398 38.373 10.9297 35.6836 13.9414C35.0976 14.6035 34.4805 15.25 33.8574 15.873C32.9072 14.681 31.8262 13.5994 30.6348 12.6484C31.2578 12.0254 31.9023 11.4141 32.5644 10.8223C35.5762 8.13086 38.4199 6.34961 40.9414 5.56055ZM17.9824 36.3438H8.20312C9.53366 33.957 10.2164 31.2636 10.1836 28.5312C10.1836 26.9861 10.6418 25.4756 11.5002 24.1909C12.3587 22.9061 13.5788 21.9048 15.0064 21.3134C16.4339 20.7221 18.0048 20.5674 19.5202 20.8689C21.0357 21.1703 22.4278 21.9144 23.5204 23.007C24.613 24.0996 25.357 25.4916 25.6585 27.0071C25.9599 28.5226 25.8052 30.0934 25.2139 31.521C24.6226 32.9485 23.6212 34.1687 22.3365 35.0271C21.0517 35.8856 19.5413 36.3438 17.9961 36.3438H17.9824ZM25.4394 18.5078C26.0488 17.7402 26.7187 16.9277 27.4375 16.0957C28.5579 16.9502 29.5584 17.9513 30.4121 19.0723C29.5801 19.791 28.7676 20.4609 28 21.0703C27.2745 20.0971 26.4121 19.234 25.4394 18.5078Z" fill="white"/>
</svg>
