<svg width="52" height="52" viewBox="0 0 52 52" fill="none" xmlns="http://www.w3.org/2000/svg">
<path d="M26 0C20.8577 0 15.8308 1.52487 11.5552 4.38179C7.27949 7.23871 3.94701 11.2994 1.97913 16.0502C0.0112501 20.8011 -0.503637 26.0288 0.499579 31.0723C1.50279 36.1159 3.97905 40.7486 7.61522 44.3848C11.2514 48.0209 15.8841 50.4972 20.9276 51.5004C25.9712 52.5036 31.1989 51.9887 35.9498 50.0209C40.7006 48.053 44.7613 44.7205 47.6182 40.4448C50.4751 36.1691 52 31.1423 52 26C51.9914 19.107 49.2494 12.4988 44.3753 7.62472C39.5012 2.75064 32.893 0.00860012 26 0ZM35.11 27.665L23.11 35.665C22.7809 35.8831 22.3948 35.9996 22 36C21.4696 36 20.9609 35.7893 20.5858 35.4142C20.2107 35.0391 20 34.5304 20 34V18C19.9998 17.6378 20.0979 17.2824 20.2839 16.9716C20.4698 16.6609 20.7367 16.4064 21.056 16.2355C21.3753 16.0645 21.735 15.9835 22.0968 16.001C22.4585 16.0186 22.8087 16.134 23.11 16.335L35.11 24.335C35.3843 24.5176 35.6093 24.7651 35.7649 25.0556C35.9205 25.346 36.0019 25.6705 36.0019 26C36.0019 26.3295 35.9205 26.654 35.7649 26.9444C35.6093 27.2349 35.3843 27.4824 35.11 27.665Z" fill="#B3B0B0"/>
</svg>
