<svg width="44" height="43" viewBox="0 0 44 43" fill="none" xmlns="http://www.w3.org/2000/svg">
<path d="M25.125 31.6562C25.125 32.2743 24.9417 32.8785 24.5984 33.3924C24.255 33.9063 23.7669 34.3069 23.1959 34.5434C22.6249 34.7799 21.9965 34.8418 21.3904 34.7212C20.7842 34.6006 20.2273 34.303 19.7903 33.866C19.3533 33.4289 19.0556 32.8721 18.9351 32.2659C18.8145 31.6597 18.8764 31.0314 19.1129 30.4604C19.3494 29.8893 19.75 29.4013 20.2639 29.0579C20.7778 28.7145 21.3819 28.5312 22 28.5312C22.8288 28.5312 23.6237 28.8605 24.2097 29.4465C24.7958 30.0326 25.125 30.8274 25.125 31.6562ZM43.0938 21.5C43.0938 25.6719 41.8566 29.7502 39.5388 33.2191C37.221 36.6879 33.9266 39.3915 30.0722 40.9881C26.2179 42.5846 21.9766 43.0023 17.8848 42.1884C13.793 41.3745 10.0345 39.3655 7.08448 36.4155C4.13446 33.4655 2.12548 29.707 1.31157 25.6152C0.497663 21.5234 0.91539 17.2822 2.51193 13.4278C4.10846 9.57339 6.8121 6.279 10.281 3.96119C13.7498 1.64338 17.8281 0.40625 22 0.40625C27.5925 0.412454 32.9542 2.63682 36.9087 6.59132C40.8632 10.5458 43.0876 15.9075 43.0938 21.5ZM38.4063 21.5C38.4063 18.2551 37.444 15.0832 35.6413 12.3852C33.8386 9.68718 31.2763 7.58435 28.2784 6.3426C25.2806 5.10085 21.9818 4.77595 18.7993 5.40899C15.6168 6.04203 12.6935 7.60457 10.399 9.89903C8.10458 12.1935 6.54204 15.1168 5.909 18.2993C5.27596 21.4818 5.60086 24.7805 6.84261 27.7784C8.08436 30.7762 10.1872 33.3386 12.8852 35.1413C15.5832 36.944 18.7552 37.9062 22 37.9062C26.3498 37.9016 30.5201 36.1716 33.5958 33.0958C36.6716 30.0201 38.4016 25.8498 38.4063 21.5ZM22 9C17.2617 9 13.4063 12.5039 13.4063 16.8125V17.5938C13.4063 18.2154 13.6532 18.8115 14.0927 19.251C14.5323 19.6906 15.1284 19.9375 15.75 19.9375C16.3716 19.9375 16.9678 19.6906 17.4073 19.251C17.8468 18.8115 18.0938 18.2154 18.0938 17.5938V16.8125C18.0938 15.0898 19.8516 13.6875 22 13.6875C24.1484 13.6875 25.9063 15.0898 25.9063 16.8125C25.9063 18.5352 24.1484 19.9375 22 19.9375C21.3784 19.9375 20.7823 20.1844 20.3427 20.624C19.9032 21.0635 19.6563 21.6596 19.6563 22.2812V23.8438C19.6549 24.4228 19.8679 24.9819 20.2542 25.4132C20.6406 25.8445 21.1729 26.1175 21.7486 26.1796C22.3243 26.2417 22.9026 26.0885 23.3721 25.7495C23.8415 25.4105 24.1689 24.9098 24.291 24.3438C27.9199 23.4297 30.5938 20.4004 30.5938 16.8125C30.5938 12.5039 26.7383 9 22 9Z" fill="white"/>
</svg>
