<svg width="36" height="45" viewBox="0 0 36 45" fill="none" xmlns="http://www.w3.org/2000/svg">
<path d="M26.5938 28.9688C26.5938 29.5904 26.3468 30.1865 25.9073 30.6261C25.4677 31.0656 24.8716 31.3126 24.25 31.3126H11.75C11.1284 31.3126 10.5323 31.0656 10.0927 30.6261C9.65318 30.1865 9.40625 29.5904 9.40625 28.9688C9.40625 28.3472 9.65318 27.7511 10.0927 27.3115C10.5323 26.872 11.1284 26.6251 11.75 26.6251H24.25C24.8716 26.6251 25.4677 26.872 25.9073 27.3115C26.3468 27.7511 26.5938 28.3472 26.5938 28.9688ZM24.25 18.8126H11.75C11.1284 18.8126 10.5323 19.0595 10.0927 19.499C9.65318 19.9386 9.40625 20.5347 9.40625 21.1563C9.40625 21.7779 9.65318 22.374 10.0927 22.8136C10.5323 23.2531 11.1284 23.5001 11.75 23.5001H24.25C24.8716 23.5001 25.4677 23.2531 25.9073 22.8136C26.3468 22.374 26.5938 21.7779 26.5938 21.1563C26.5938 20.5347 26.3468 19.9386 25.9073 19.499C25.4677 19.0595 24.8716 18.8126 24.25 18.8126ZM35.9688 7.87505V40.6876C35.9688 41.7236 35.5572 42.7171 34.8246 43.4497C34.0921 44.1823 33.0985 44.5938 32.0625 44.5938H3.9375C2.9015 44.5938 1.90793 44.1823 1.17536 43.4497C0.4428 42.7171 0.03125 41.7236 0.03125 40.6876V7.87505C0.03125 6.83905 0.4428 5.84548 1.17536 5.11292C1.90793 4.38036 2.9015 3.96881 3.9375 3.96881H10.6816C11.6275 2.98108 12.7635 2.19505 14.0213 1.65806C15.279 1.12107 16.6324 0.844238 18 0.844238C19.3676 0.844238 20.721 1.12107 21.9787 1.65806C23.2365 2.19505 24.3725 2.98108 25.3184 3.96881H32.0625C33.0985 3.96881 34.0921 4.38036 34.8246 5.11292C35.5572 5.84548 35.9688 6.83905 35.9688 7.87505ZM18 5.5313C16.685 5.53144 15.4142 6.00536 14.4202 6.86625C13.4262 7.72714 12.7757 8.91734 12.5879 10.2188H23.4121C23.2243 8.91734 22.5738 7.72714 21.5798 6.86625C20.5858 6.00536 19.315 5.53144 18 5.5313ZM31.2812 8.6563H27.8809C28.0632 9.42424 28.1556 10.2108 28.1562 11.0001V12.5626C28.1562 13.1842 27.9093 13.7803 27.4698 14.2198C27.0302 14.6594 26.4341 14.9063 25.8125 14.9063H10.1875C9.5659 14.9063 8.96976 14.6594 8.53022 14.2198C8.09068 13.7803 7.84375 13.1842 7.84375 12.5626V11.0001C7.84439 10.2108 7.93681 9.42424 8.11914 8.6563H4.71875V39.9063H31.2812V8.6563Z" fill="white"/>
</svg>
