<svg width="24" height="28" viewBox="0 0 24 28" fill="none" xmlns="http://www.w3.org/2000/svg">
<path d="M14.8275 21.4899L14.8445 21.443L14.8025 21.4161L8.17753 17.1598L8.13558 17.1329L8.09998 17.1678C7.47604 17.7798 6.68524 18.194 5.82682 18.3583C4.96839 18.5226 4.08055 18.4297 3.27469 18.0914C2.46883 17.753 1.78083 17.1842 1.29701 16.4563C0.813186 15.7285 0.555084 14.8739 0.555084 13.9999C0.555084 13.1259 0.813186 12.2713 1.29701 11.5435C1.78083 10.8156 2.46883 10.2468 3.27469 9.90841C4.08055 9.57006 4.96839 9.47721 5.82682 9.64152C6.68524 9.80583 7.47604 10.22 8.09998 10.832L8.13556 10.8669L8.1775 10.84L14.8025 6.59L14.8446 6.56301L14.8275 6.51602C14.4534 5.48802 14.4712 4.35822 14.8774 3.3425C15.2837 2.32678 16.05 1.49636 17.0298 1.00992C18.0097 0.523475 19.1344 0.415118 20.1891 0.705551C21.2438 0.995985 22.1545 1.66484 22.7472 2.58432C23.3399 3.5038 23.5731 4.60943 23.4021 5.68994C23.2311 6.77046 22.668 7.75009 21.8204 8.44167C20.9728 9.13324 19.9 9.48825 18.8072 9.43887C17.7144 9.38949 16.678 8.93918 15.8962 8.17398L15.8606 8.13914L15.8187 8.16606L9.19372 12.4223L9.15176 12.4493L9.16873 12.4962C9.52181 13.4719 9.52181 14.5404 9.16873 15.5161L9.15176 15.563L9.19372 15.59L15.8187 19.8462L15.8606 19.8732L15.8962 19.8383C16.52 19.2279 17.3099 18.8149 18.1671 18.6511C19.0244 18.4873 19.9109 18.5799 20.7158 18.9173C21.5206 19.2548 22.2081 19.8221 22.6923 20.5483C23.1764 21.2745 23.4356 22.1273 23.4375 23C23.4376 23.6477 23.2959 24.2875 23.0224 24.8745C22.7488 25.4616 22.3501 25.9817 21.8542 26.3983C21.3582 26.8149 20.7771 27.1179 20.1516 27.2859C19.5261 27.454 18.8714 27.4832 18.2335 27.3713C17.5955 27.2594 16.9898 27.0092 16.4588 26.6383C15.9279 26.2674 15.4845 25.7848 15.1599 25.2243C14.8354 24.6638 14.6374 24.0391 14.58 23.3939C14.5225 22.7488 14.607 22.0989 14.8275 21.4899Z" fill="#B3B0B0" stroke="#B3B0B0" stroke-width="0.125"/>
</svg>
