<svg width="26" height="26" viewBox="0 0 26 26" fill="none" xmlns="http://www.w3.org/2000/svg">
<path d="M13 0C10.4288 0 7.91543 0.762437 5.77759 2.1909C3.63975 3.61935 1.97351 5.64968 0.989572 8.02512C0.0056327 10.4006 -0.251811 13.0144 0.249797 15.5362C0.751405 18.0579 1.98953 20.3743 3.80762 22.1924C5.6257 24.0105 7.94208 25.2486 10.4638 25.7502C12.9856 26.2518 15.5995 25.9944 17.9749 25.0104C20.3503 24.0265 22.3807 22.3603 23.8091 20.2224C25.2376 18.0846 26 15.5712 26 13C25.9957 9.55351 24.6247 6.2494 22.1876 3.81236C19.7506 1.37532 16.4465 0.00430006 13 0ZM10.7075 12.2925C10.8951 12.4801 11.0006 12.7346 11.0006 13C11.0006 13.2654 10.8951 13.5199 10.7075 13.7075C10.5199 13.8951 10.2654 14.0006 10 14.0006C9.73464 14.0006 9.48015 13.8951 9.29251 13.7075L8.00001 12.4137L6.70751 13.7075C6.51987 13.8951 6.26537 14.0006 6.00001 14.0006C5.73464 14.0006 5.48015 13.8951 5.29251 13.7075C5.10486 13.5199 4.99945 13.2654 4.99945 13C4.99945 12.7346 5.10486 12.4801 5.29251 12.2925L6.58626 11L5.29251 9.7075C5.10486 9.51986 4.99945 9.26536 4.99945 9C4.99945 8.73464 5.10486 8.48014 5.29251 8.2925C5.48015 8.10486 5.73464 7.99944 6.00001 7.99944C6.26537 7.99944 6.51987 8.10486 6.70751 8.2925L8.00001 9.58625L9.29251 8.2925C9.48015 8.10486 9.73464 7.99944 10 7.99944C10.2654 7.99944 10.5199 8.10486 10.7075 8.2925C10.8951 8.48014 11.0006 8.73464 11.0006 9C11.0006 9.26536 10.8951 9.51986 10.7075 9.7075L9.41376 11L10.7075 12.2925ZM13 21C12.7033 21 12.4133 20.912 12.1667 20.7472C11.92 20.5824 11.7277 20.3481 11.6142 20.074C11.5007 19.7999 11.471 19.4983 11.5288 19.2074C11.5867 18.9164 11.7296 18.6491 11.9393 18.4393C12.1491 18.2296 12.4164 18.0867 12.7074 18.0288C12.9983 17.9709 13.2999 18.0007 13.574 18.1142C13.8481 18.2277 14.0824 18.42 14.2472 18.6666C14.412 18.9133 14.5 19.2033 14.5 19.5C14.5 19.8978 14.342 20.2794 14.0607 20.5607C13.7794 20.842 13.3978 21 13 21ZM20.7075 12.2925C20.8004 12.3854 20.8741 12.4957 20.9244 12.6171C20.9747 12.7385 21.0006 12.8686 21.0006 13C21.0006 13.1314 20.9747 13.2615 20.9244 13.3829C20.8741 13.5043 20.8004 13.6146 20.7075 13.7075C20.6146 13.8004 20.5043 13.8741 20.3829 13.9244C20.2615 13.9747 20.1314 14.0006 20 14.0006C19.8686 14.0006 19.7385 13.9747 19.6171 13.9244C19.4957 13.8741 19.3854 13.8004 19.2925 13.7075L18 12.4137L16.7075 13.7075C16.5199 13.8951 16.2654 14.0006 16 14.0006C15.7346 14.0006 15.4801 13.8951 15.2925 13.7075C15.1049 13.5199 14.9994 13.2654 14.9994 13C14.9994 12.7346 15.1049 12.4801 15.2925 12.2925L16.5863 11L15.2925 9.7075C15.1049 9.51986 14.9994 9.26536 14.9994 9C14.9994 8.73464 15.1049 8.48014 15.2925 8.2925C15.4801 8.10486 15.7346 7.99944 16 7.99944C16.2654 7.99944 16.5199 8.10486 16.7075 8.2925L18 9.58625L19.2925 8.2925C19.3854 8.19959 19.4957 8.12589 19.6171 8.07561C19.7385 8.02532 19.8686 7.99944 20 7.99944C20.1314 7.99944 20.2615 8.02532 20.3829 8.07561C20.5043 8.12589 20.6146 8.19959 20.7075 8.2925C20.8004 8.38541 20.8741 8.49571 20.9244 8.6171C20.9747 8.7385 21.0006 8.8686 21.0006 9C21.0006 9.1314 20.9747 9.2615 20.9244 9.3829C20.8741 9.50429 20.8004 9.61459 20.7075 9.7075L19.4138 11L20.7075 12.2925Z" fill="#B3B0B0"/>
</svg>
