<svg width="26" height="26" viewBox="0 0 26 26" fill="none" xmlns="http://www.w3.org/2000/svg">
<path d="M13 0C10.4288 0 7.91542 0.762437 5.77759 2.1909C3.63975 3.61935 1.9735 5.64968 0.989564 8.02512C0.00562507 10.4006 -0.251818 13.0144 0.24979 15.5362C0.751397 18.0579 1.98953 20.3743 3.80761 22.1924C5.62569 24.0105 7.94207 25.2486 10.4638 25.7502C12.9856 26.2518 15.5994 25.9944 17.9749 25.0104C20.3503 24.0265 22.3806 22.3603 23.8091 20.2224C25.2376 18.0846 26 15.5712 26 13C25.9964 9.5533 24.6255 6.24882 22.1884 3.81163C19.7512 1.37445 16.4467 0.00363977 13 0ZM8.5 9C8.79667 9 9.08668 9.08797 9.33335 9.2528C9.58003 9.41762 9.77229 9.65189 9.88582 9.92597C9.99935 10.2001 10.0291 10.5017 9.97118 10.7926C9.9133 11.0836 9.77044 11.3509 9.56066 11.5607C9.35088 11.7704 9.08361 11.9133 8.79263 11.9712C8.50166 12.0291 8.20006 11.9994 7.92597 11.8858C7.65188 11.7723 7.41762 11.58 7.25279 11.3334C7.08797 11.0867 7 10.7967 7 10.5C7 10.1022 7.15803 9.72064 7.43934 9.43934C7.72064 9.15804 8.10217 9 8.5 9ZM18.865 16.5C17.5787 18.7238 15.4412 20 13 20C10.5587 20 8.42125 18.725 7.135 16.5C7.06264 16.3862 7.01406 16.2589 6.99217 16.1258C6.97028 15.9927 6.97554 15.8566 7.00763 15.7256C7.03971 15.5946 7.09797 15.4715 7.17888 15.3636C7.2598 15.2557 7.3617 15.1652 7.47847 15.0978C7.59523 15.0303 7.72445 14.9871 7.85833 14.9708C7.99222 14.9546 8.12801 14.9655 8.25753 15.0031C8.38706 15.0407 8.50765 15.1041 8.61205 15.1895C8.71644 15.2749 8.80248 15.3805 8.865 15.5C9.79875 17.1138 11.2662 18 13 18C14.7337 18 16.2012 17.1125 17.135 15.5C17.1975 15.3805 17.2836 15.2749 17.388 15.1895C17.4923 15.1041 17.6129 15.0407 17.7425 15.0031C17.872 14.9655 18.0078 14.9546 18.1417 14.9708C18.2755 14.9871 18.4048 15.0303 18.5215 15.0978C18.6383 15.1652 18.7402 15.2557 18.8211 15.3636C18.902 15.4715 18.9603 15.5946 18.9924 15.7256C19.0245 15.8566 19.0297 15.9927 19.0078 16.1258C18.9859 16.2589 18.9374 16.3862 18.865 16.5ZM17.5 12C17.2033 12 16.9133 11.912 16.6666 11.7472C16.42 11.5824 16.2277 11.3481 16.1142 11.074C16.0006 10.7999 15.9709 10.4983 16.0288 10.2074C16.0867 9.91639 16.2296 9.64912 16.4393 9.43934C16.6491 9.22956 16.9164 9.0867 17.2074 9.02882C17.4983 8.97094 17.7999 9.00065 18.074 9.11418C18.3481 9.22771 18.5824 9.41997 18.7472 9.66665C18.912 9.91332 19 10.2033 19 10.5C19 10.8978 18.842 11.2794 18.5607 11.5607C18.2794 11.842 17.8978 12 17.5 12Z" fill="#FFC107"/>
</svg>
