<svg width="26" height="26" viewBox="0 0 26 26" fill="none" xmlns="http://www.w3.org/2000/svg">
<path d="M13 0C10.4288 0 7.91543 0.762437 5.77759 2.1909C3.63975 3.61935 1.97351 5.64968 0.989572 8.02512C0.0056327 10.4006 -0.251811 13.0144 0.249797 15.5362C0.751405 18.0579 1.98953 20.3743 3.80762 22.1924C5.6257 24.0105 7.94208 25.2486 10.4638 25.7502C12.9856 26.2518 15.5995 25.9944 17.9749 25.0104C20.3503 24.0265 22.3807 22.3603 23.8091 20.2224C25.2376 18.0846 26 15.5712 26 13C25.9957 9.55351 24.6247 6.2494 22.1876 3.81236C19.7506 1.37532 16.4465 0.00430006 13 0ZM8.50001 9C8.79668 9 9.08669 9.08797 9.33336 9.2528C9.58003 9.41762 9.77229 9.65189 9.88583 9.92597C9.99936 10.2001 10.0291 10.5017 9.97118 10.7926C9.91331 11.0836 9.77044 11.3509 9.56067 11.5607C9.35089 11.7704 9.08361 11.9133 8.79264 11.9712C8.50167 12.0291 8.20007 11.9994 7.92598 11.8858C7.65189 11.7723 7.41762 11.58 7.2528 11.3334C7.08798 11.0867 7.00001 10.7967 7.00001 10.5C7.00001 10.1022 7.15804 9.72064 7.43935 9.43934C7.72065 9.15804 8.10218 9 8.50001 9ZM18 18H8.00001C7.73479 18 7.48044 17.8946 7.2929 17.7071C7.10536 17.5196 7.00001 17.2652 7.00001 17C7.00001 16.7348 7.10536 16.4804 7.2929 16.2929C7.48044 16.1054 7.73479 16 8.00001 16H18C18.2652 16 18.5196 16.1054 18.7071 16.2929C18.8946 16.4804 19 16.7348 19 17C19 17.2652 18.8946 17.5196 18.7071 17.7071C18.5196 17.8946 18.2652 18 18 18ZM17.5 12C17.2033 12 16.9133 11.912 16.6667 11.7472C16.42 11.5824 16.2277 11.3481 16.1142 11.074C16.0007 10.7999 15.971 10.4983 16.0288 10.2074C16.0867 9.91639 16.2296 9.64912 16.4393 9.43934C16.6491 9.22956 16.9164 9.0867 17.2074 9.02882C17.4983 8.97094 17.7999 9.00065 18.074 9.11418C18.3481 9.22771 18.5824 9.41997 18.7472 9.66665C18.912 9.91332 19 10.2033 19 10.5C19 10.8978 18.842 11.2794 18.5607 11.5607C18.2794 11.842 17.8978 12 17.5 12Z" fill="#B3B0B0"/>
</svg>
