<svg width="26" height="26" viewBox="0 0 26 26" fill="none" xmlns="http://www.w3.org/2000/svg">
<path d="M13 0C10.4288 0 7.91543 0.762437 5.77759 2.1909C3.63975 3.61935 1.97351 5.64968 0.989572 8.02512C0.0056327 10.4006 -0.251811 13.0144 0.249797 15.5362C0.751405 18.0579 1.98953 20.3743 3.80762 22.1924C5.6257 24.0105 7.94208 25.2486 10.4638 25.7502C12.9856 26.2518 15.5995 25.9944 17.9749 25.0104C20.3503 24.0265 22.3807 22.3603 23.8091 20.2224C25.2376 18.0846 26 15.5712 26 13C25.9964 9.5533 24.6256 6.24882 22.1884 3.81163C19.7512 1.37445 16.4467 0.00363977 13 0ZM7.00001 14.5C7.00001 14.2033 7.08798 13.9133 7.2528 13.6666C7.41762 13.42 7.65189 13.2277 7.92598 13.1142C8.20007 13.0007 8.50167 12.9709 8.79264 13.0288C9.08361 13.0867 9.35089 13.2296 9.56067 13.4393C9.77044 13.6491 9.91331 13.9164 9.97118 14.2074C10.0291 14.4983 9.99936 14.7999 9.88583 15.074C9.77229 15.3481 9.58003 15.5824 9.33336 15.7472C9.08669 15.912 8.79668 16 8.50001 16C8.10218 16 7.72065 15.842 7.43935 15.5607C7.15804 15.2794 7.00001 14.8978 7.00001 14.5ZM16.8325 20.5537C16.6856 20.7745 16.4571 20.9279 16.1971 20.9802C15.9371 21.0324 15.6671 20.9793 15.4463 20.8325C14.6338 20.2925 14 20 13 20C12 20 11.3663 20.2925 10.5538 20.8325C10.3329 20.9739 10.0654 21.0229 9.80885 20.969C9.55227 20.915 9.32712 20.7625 9.18191 20.5442C9.0367 20.3259 8.98304 20.0593 9.03248 19.8018C9.08192 19.5443 9.23051 19.3165 9.44626 19.1675C10.5 18.4662 11.5075 18 13 18C14.4925 18 15.5 18.4662 16.5538 19.1675C16.7745 19.3144 16.9279 19.5429 16.9802 19.8029C17.0324 20.0629 16.9793 20.3329 16.8325 20.5537ZM17.5 16C17.2033 16 16.9133 15.912 16.6667 15.7472C16.42 15.5824 16.2277 15.3481 16.1142 15.074C16.0007 14.7999 15.971 14.4983 16.0288 14.2074C16.0867 13.9164 16.2296 13.6491 16.4393 13.4393C16.6491 13.2296 16.9164 13.0867 17.2074 13.0288C17.4983 12.9709 17.7999 13.0007 18.074 13.1142C18.3481 13.2277 18.5824 13.42 18.7472 13.6666C18.912 13.9133 19 14.2033 19 14.5C19 14.8978 18.842 15.2794 18.5607 15.5607C18.2794 15.842 17.8978 16 17.5 16ZM19.555 8.8325L13.555 12.8325C13.3907 12.9421 13.1976 13.0007 13 13.0007C12.8025 13.0007 12.6093 12.9421 12.445 12.8325L6.44501 8.8325C6.33568 8.75962 6.24178 8.66591 6.16867 8.55674C6.09556 8.44757 6.04466 8.32506 6.0189 8.19622C5.99313 8.06738 5.99299 7.93473 6.01849 7.80583C6.04399 7.67694 6.09462 7.55433 6.16751 7.445C6.3147 7.22421 6.54358 7.07093 6.80378 7.01889C6.93262 6.99312 7.06528 6.99298 7.19417 7.01848C7.32307 7.04398 7.44568 7.09462 7.55501 7.1675L13 10.7987L18.445 7.17375C18.5543 7.10087 18.6769 7.05023 18.8058 7.02473C18.9347 6.99923 19.0674 6.99937 19.1962 7.02514C19.3251 7.05091 19.4476 7.1018 19.5567 7.17491C19.6659 7.24802 19.7596 7.34192 19.8325 7.45125C19.9054 7.56058 19.956 7.68319 19.9815 7.81208C20.007 7.94098 20.0069 8.07363 19.9811 8.20247C19.9553 8.33131 19.9045 8.45382 19.8313 8.56299C19.7582 8.67216 19.6643 8.76587 19.555 8.83875V8.8325Z" fill="#B3B0B0"/>
</svg>
