<svg width="20" height="19" viewBox="0 0 20 19" fill="none" xmlns="http://www.w3.org/2000/svg">
<path d="M9.18836 0.580808C9.6107 -0.193602 10.7227 -0.193603 11.145 0.580807L13.3849 4.68795C13.5452 4.98184 13.8291 5.18811 14.1581 5.24972L18.7564 6.11082C19.6234 6.27319 19.9671 7.33073 19.3611 7.9717L16.1471 11.3712C15.9171 11.6144 15.8087 11.9482 15.8518 12.2801L16.4538 16.9195C16.5673 17.7942 15.6677 18.4478 14.8708 18.0695L10.6446 16.0634C10.3421 15.9198 9.99123 15.9198 9.68882 16.0634L5.46257 18.0695C4.66571 18.4478 3.76611 17.7942 3.87962 16.9195L4.48161 12.2801C4.52469 11.9482 4.41625 11.6144 4.18627 11.3712L0.972315 7.9717C0.366318 7.33073 0.709933 6.27319 1.57695 6.11082L6.17525 5.24972C6.50428 5.18811 6.78818 4.98184 6.94846 4.68795L9.18836 0.580808Z" fill="#F8C202"/>
</svg>
