<svg width="46" height="45" viewBox="0 0 46 45" fill="none" xmlns="http://www.w3.org/2000/svg">
<path d="M45.4609 17.2598C45.2235 16.5319 44.7773 15.8899 44.178 15.4135C43.5787 14.937 42.8525 14.6472 42.0898 14.5801L30.957 13.6172L26.6016 3.23831C26.3019 2.5325 25.8012 1.93047 25.1618 1.50727C24.5224 1.08406 23.7726 0.858398 23.0058 0.858398C22.2391 0.858398 21.4893 1.08406 20.8499 1.50727C20.2105 1.93047 19.7098 2.5325 19.4101 3.23831L15.0488 13.6172L3.916 14.5801C3.14918 14.6436 2.41819 14.9321 1.81475 15.4095C1.21131 15.8869 0.762303 16.5319 0.524059 17.2635C0.285815 17.9952 0.26895 18.7809 0.475581 19.522C0.682213 20.2632 1.10314 20.9269 1.68554 21.4297L10.1465 28.8125L7.60741 39.7969C7.43328 40.5449 7.48349 41.3276 7.75177 42.0472C8.02004 42.7668 8.49448 43.3913 9.11576 43.8427C9.73705 44.2942 10.4776 44.5524 11.2449 44.5853C12.0122 44.6181 12.7721 44.4241 13.4297 44.0274L23 38.2149L32.5703 44.0274C33.2279 44.4234 33.9875 44.617 34.7545 44.5838C35.5214 44.5507 36.2615 44.2923 36.8824 43.841C37.5034 43.3897 37.9776 42.7654 38.2458 42.0462C38.514 41.3269 38.5644 40.5446 38.3906 39.7969L35.8516 28.8125L44.3125 21.4297C44.8933 20.925 45.3122 20.2601 45.5165 19.5182C45.7208 18.7764 45.7015 17.9907 45.4609 17.2598ZM32.4238 25.584C31.8882 26.05 31.4897 26.6532 31.2712 27.3287C31.0526 28.0043 31.0224 28.7266 31.1836 29.418L33.4082 39.0508L25.0215 33.9571C24.4124 33.5862 23.7131 33.39 23 33.39C22.2869 33.39 21.5876 33.5862 20.9785 33.9571L12.5918 39.0508L14.8164 29.418C14.9776 28.7266 14.9473 28.0043 14.7288 27.3287C14.5103 26.6532 14.1118 26.05 13.5762 25.584L6.13671 19.0938L15.9297 18.2461C16.6388 18.1854 17.3177 17.9313 17.8925 17.5115C18.4672 17.0917 18.9158 16.5223 19.1894 15.8653L23 6.78519L26.8105 15.8653C27.0841 16.5223 27.5327 17.0917 28.1075 17.5115C28.6823 17.9313 29.3612 18.1854 30.0703 18.2461L39.8633 19.0938L32.4238 25.584Z" fill="white"/>
</svg>
