<svg width="100" height="59" viewBox="0 0 100 59" fill="none" xmlns="http://www.w3.org/2000/svg">
<path fill-rule="evenodd" clip-rule="evenodd" d="M0 0H100L78.1022 58.2677H0L0 0ZM44.9824 13.6796C44.8657 13.8315 44.7801 14.0048 44.7306 14.1896C44.6809 14.3746 44.6683 14.5675 44.6935 14.7573C44.7186 14.9472 44.781 15.1302 44.8771 15.2959C44.9732 15.4616 45.1011 15.6069 45.2535 15.7232C45.4059 15.8396 45.5798 15.9248 45.7652 15.9741C47.9747 16.5489 49.9906 17.7013 51.605 19.3125C53.2194 20.9238 54.3739 22.9355 54.9495 25.1403C55.0327 25.4502 55.2161 25.7239 55.4711 25.9192C55.7262 26.1144 56.0387 26.2202 56.3601 26.2201C56.4876 26.2198 56.6145 26.2033 56.7379 26.1709C56.9231 26.1215 57.0968 26.0361 57.249 25.9197C57.4012 25.8032 57.5289 25.658 57.6248 25.4923C57.7207 25.3265 57.783 25.1436 57.808 24.9539C57.833 24.7641 57.8204 24.5713 57.7707 24.3865C57.0646 21.686 55.6498 19.2222 53.6721 17.2488C51.6944 15.2753 49.2252 13.8636 46.5189 13.159C46.3336 13.1095 46.1404 13.0968 45.9503 13.1218C45.7601 13.1468 45.5768 13.2089 45.4107 13.3046C45.2446 13.4003 45.0991 13.5277 44.9824 13.6796ZM49.1101 26.597C48.4386 24.0861 46.8218 22.4709 44.3054 21.8009C44.1201 21.7515 43.9464 21.6662 43.7943 21.5498C43.642 21.4335 43.5143 21.2883 43.4183 21.1227C43.3223 20.9571 43.2599 20.7742 43.2348 20.5846C43.2096 20.3949 43.2221 20.2022 43.2716 20.0173C43.3211 19.8325 43.4066 19.6592 43.5232 19.5073C43.6398 19.3554 43.7852 19.228 43.9512 19.1322C44.1172 19.0364 44.3005 18.9742 44.4905 18.9491C44.6806 18.9239 44.8738 18.9364 45.059 18.9858C48.5554 19.9181 50.997 22.3544 51.9313 25.8432C51.9809 26.028 51.9936 26.2208 51.9686 26.4105C51.9436 26.6003 51.8813 26.7832 51.7854 26.9489C51.6895 27.1147 51.5618 27.2599 51.4096 27.3763C51.2574 27.4928 51.0837 27.5782 50.8984 27.6276C50.7751 27.66 50.6482 27.6765 50.5207 27.6768C50.1992 27.6769 49.8867 27.5711 49.6317 27.3759C49.3766 27.1806 49.1933 26.9069 49.1101 26.597ZM48.9258 32.2927L57.5225 36.1365C58.1002 36.3868 58.5813 36.8166 58.894 37.362C59.2068 37.9074 59.3344 38.5391 59.2579 39.1628C58.9325 41.6301 57.7182 43.8949 55.8417 45.5341C53.9652 47.1734 51.5548 48.075 49.0608 48.0705C34.5718 48.0705 22.7835 36.3077 22.7835 21.85C22.779 19.3614 23.6825 16.9563 25.3253 15.0839C26.9681 13.2114 29.2378 11.9997 31.7105 11.675C32.3358 11.5988 32.969 11.7265 33.5156 12.0389C34.0622 12.3513 34.4929 12.8318 34.7433 13.4085L38.6065 22.0012V22.023C38.7959 22.4645 38.8731 22.9459 38.8311 23.4243C38.789 23.9027 38.6291 24.3634 38.3656 24.7652C38.3327 24.8144 38.2981 24.8599 38.2616 24.9054L34.4696 29.4048C35.8364 32.1762 38.7415 35.0531 41.5554 36.417L45.997 32.6387C46.0406 32.6021 46.0863 32.568 46.1338 32.5367C46.5377 32.2679 47.0023 32.1039 47.4856 32.0594C47.9689 32.0149 48.4558 32.0913 48.9021 32.2818L48.9258 32.2927Z" fill="white"/>
</svg>
