<svg width="100" height="59" viewBox="0 0 100 59" fill="none" xmlns="http://www.w3.org/2000/svg">
<path fill-rule="evenodd" clip-rule="evenodd" d="M100 0H0L22.2222 58.8235H100V0ZM69.1081 34.6816L64.8801 32.5713L62.2 34.3672C61.996 34.5015 61.7619 34.583 61.5186 34.6041C61.2754 34.6253 61.0307 34.5856 60.8066 34.4886C58.3059 33.4364 56.3165 31.447 55.2643 28.9463C55.1714 28.7229 55.135 28.48 55.1584 28.2392C55.1818 27.9984 55.2643 27.7671 55.3985 27.5658L57.1945 24.893L55.0842 20.665C54.084 20.8652 53.1841 21.4058 52.5376 22.1947C51.8911 22.9836 51.5379 23.9722 51.5382 24.9922C51.5421 28.5013 52.9378 31.8654 55.419 34.3467C57.9003 36.8279 61.2645 38.2236 64.7735 38.2275C65.7948 38.2295 66.7851 37.8771 67.5755 37.2305C68.366 36.5838 68.9076 35.683 69.1081 34.6816ZM77.001 38.8219C78.6263 35.9492 79.4801 32.7046 79.4794 29.404C79.4782 26.5 78.8154 23.6344 77.5414 21.0248C76.2674 18.4151 74.4156 16.13 72.1266 14.3429C69.8376 12.5558 67.1715 11.3136 64.3308 10.7107C61.49 10.1078 58.5493 10.16 55.7317 10.8633C52.9141 11.5666 50.2938 12.9026 48.0697 14.7698C45.8455 16.637 44.0759 18.9863 42.8953 21.6395C41.7147 24.2927 41.154 27.18 41.2558 30.0823C41.3577 32.9845 42.1194 35.8254 43.4831 38.3893L41.3967 44.6485C41.2238 45.1667 41.1988 45.7228 41.3242 46.2545C41.4497 46.7862 41.7208 47.2724 42.107 47.6587C42.4933 48.045 42.9796 48.316 43.5112 48.4415C44.0429 48.567 44.599 48.5419 45.1172 48.3691L51.3764 46.2827C54.2898 47.834 57.5551 48.6046 60.8546 48.5195C64.1542 48.4344 67.3754 47.4965 70.2049 45.7971C73.0344 44.0977 75.3758 41.6946 77.001 38.8219ZM71.9072 33.0422C72.0507 33.2747 72.1266 33.5426 72.1264 33.8158C72.1264 34.7814 71.9362 35.7375 71.5667 36.6296C71.1972 37.5217 70.6556 38.3323 69.9728 39.0151C69.29 39.6979 68.4794 40.2395 67.5873 40.609C66.6952 40.9785 65.7391 41.1687 64.7735 41.1687C60.4847 41.1638 56.373 39.458 53.3404 36.4253C50.3078 33.3927 48.6019 29.281 48.597 24.9922C48.597 23.0421 49.3717 21.1719 50.7507 19.7929C52.1296 18.414 53.9998 17.6393 55.95 17.6393C56.2247 17.6386 56.4941 17.7148 56.7277 17.8594C56.9613 18.004 57.1498 18.2111 57.2717 18.4573L60.2128 24.3397C60.3282 24.5712 60.3805 24.8291 60.3643 25.0873C60.3482 25.3455 60.2642 25.5949 60.1209 25.8102L58.3195 28.5106C59.0009 29.7502 60.021 30.7703 61.2606 31.4518L63.961 29.6503C64.1764 29.507 64.4258 29.423 64.684 29.4069C64.9422 29.3908 65.2 29.443 65.4316 29.5584L71.3139 32.4996C71.5583 32.6218 71.7637 32.8097 71.9072 33.0422Z" fill="white"/>
</svg>
