<svg width="32" height="32" viewBox="0 0 32 32" fill="none" xmlns="http://www.w3.org/2000/svg">
<path d="M30.7075 9.70758L26.97 13.4451C26.215 22.1976 18.8338 29.0001 10 29.0001C8.185 29.0001 6.68875 28.7126 5.5525 28.1451C4.63625 27.6863 4.26125 27.1951 4.1675 27.0551C4.08391 26.9297 4.02972 26.7871 4.009 26.6378C3.98828 26.4886 4.00155 26.3366 4.04783 26.1932C4.0941 26.0498 4.17219 25.9187 4.27625 25.8097C4.3803 25.7007 4.50764 25.6167 4.64875 25.5638C4.68125 25.5513 7.67875 24.4001 9.5825 22.2088C8.52673 21.3408 7.6051 20.3214 6.8475 19.1838C5.2975 16.8826 3.5625 12.8851 4.0975 6.91133C4.11446 6.72151 4.1853 6.54049 4.30169 6.38959C4.41808 6.23868 4.57517 6.12418 4.75445 6.05955C4.93373 5.99493 5.12775 5.98289 5.31365 6.02484C5.49955 6.06678 5.66959 6.16098 5.80375 6.29633C5.8475 6.34008 9.96375 10.4338 14.9963 11.7613V11.0001C14.9943 10.2018 15.1522 9.41125 15.4604 8.67492C15.7687 7.93858 16.2212 7.27137 16.7913 6.71258C17.3449 6.15974 18.0036 5.72338 18.7286 5.42926C19.4536 5.13514 20.2302 4.98921 21.0125 5.00008C22.062 5.01043 23.0909 5.29214 23.9992 5.81783C24.9076 6.34352 25.6644 7.0953 26.1963 8.00008H30C30.1979 7.99992 30.3914 8.05849 30.556 8.16836C30.7206 8.27823 30.8489 8.43446 30.9246 8.61729C31.0004 8.80011 31.0202 9.0013 30.9815 9.19538C30.9429 9.38947 30.8475 9.56772 30.7075 9.70758Z" fill="#B3B0B0"/>
</svg>
