<svg width="44" height="43" viewBox="0 0 44 43" fill="none" xmlns="http://www.w3.org/2000/svg">
<path d="M1.84181 20.2482C2.08786 20.4334 2.368 20.5683 2.6662 20.6451C2.9644 20.722 3.27483 20.7393 3.57974 20.6962C3.88465 20.653 4.17806 20.5502 4.44321 20.3935C4.70836 20.2369 4.94004 20.0296 5.12501 19.7834C5.99823 18.6187 7.13068 17.6733 8.43264 17.0222C9.73459 16.3711 11.1703 16.0321 12.626 16.0321C14.0817 16.0321 15.5174 16.3711 16.8193 17.0222C18.1213 17.6733 19.2538 18.6187 20.127 19.7834C20.5002 20.2804 21.0556 20.6087 21.6709 20.6963C22.2863 20.7838 22.9112 20.6233 23.4082 20.2502C23.584 20.1168 23.7404 19.9597 23.8731 19.7834C24.7463 18.6187 25.8787 17.6733 27.1807 17.0222C28.4826 16.3711 29.9183 16.0321 31.374 16.0321C32.8297 16.0321 34.2654 16.3711 35.5674 17.0222C36.8694 17.6733 38.0018 18.6187 38.875 19.7834C39.0581 20.0339 39.2892 20.2456 39.5548 20.4061C39.8204 20.5667 40.1152 20.6728 40.4221 20.7185C40.7291 20.7642 41.042 20.7485 41.3429 20.6723C41.6437 20.596 41.9264 20.4608 42.1745 20.2745C42.4227 20.0882 42.6314 19.8544 42.7885 19.5868C42.9455 19.3191 43.0479 19.023 43.0897 18.7155C43.1314 18.4079 43.1116 18.0952 43.0315 17.7954C42.9514 17.4956 42.8126 17.2147 42.6231 16.9689C41.3192 15.2233 39.6276 13.8044 37.6817 12.8244C38.5332 11.6597 39.0456 10.2819 39.162 8.84386C39.2785 7.40578 38.9944 5.96354 38.3413 4.67702C37.6882 3.39051 36.6916 2.30997 35.462 1.55519C34.2324 0.800413 32.8178 0.400879 31.375 0.400879C29.9322 0.400879 28.5176 0.800413 27.288 1.55519C26.0584 2.30997 25.0618 3.39051 24.4087 4.67702C23.7556 5.96354 23.4716 7.40578 23.588 8.84386C23.7044 10.2819 24.2168 11.6597 25.0684 12.8244C23.9562 13.3821 22.9242 14.087 22 14.9201C21.076 14.0864 20.0439 13.3808 18.9317 12.8224C19.7832 11.6577 20.2956 10.28 20.412 8.84191C20.5285 7.40383 20.2444 5.96159 19.5913 4.67507C18.9382 3.38855 17.9416 2.30802 16.712 1.55324C15.4824 0.79846 14.0678 0.398926 12.625 0.398926C11.1822 0.398926 9.76762 0.79846 8.538 1.55324C7.30838 2.30802 6.3118 3.38855 5.65871 4.67507C5.00563 5.96159 4.72156 7.40383 4.838 8.84191C4.95443 10.28 5.46683 11.6577 6.31837 12.8224C4.37241 13.8025 2.68079 15.2213 1.37697 16.967C1.00359 17.4638 0.842809 18.0885 0.92998 18.7038C1.01715 19.3192 1.34514 19.8747 1.84181 20.2482ZM31.375 5.09392C31.9931 5.09392 32.5973 5.2772 33.1112 5.62058C33.6251 5.96396 34.0256 6.45202 34.2621 7.02304C34.4987 7.59406 34.5605 8.22239 34.44 8.82858C34.3194 9.43477 34.0218 9.99159 33.5847 10.4286C33.1477 10.8657 32.5909 11.1633 31.9847 11.2839C31.3785 11.4045 30.7501 11.3426 30.1791 11.106C29.6081 10.8695 29.1201 10.469 28.7767 9.95508C28.4333 9.44118 28.25 8.83699 28.25 8.21892C28.25 7.39012 28.5793 6.59527 29.1653 6.00921C29.7514 5.42316 30.5462 5.09392 31.375 5.09392ZM12.625 5.09392C13.2431 5.09392 13.8473 5.2772 14.3612 5.62058C14.8751 5.96396 15.2756 6.45202 15.5121 7.02304C15.7487 7.59406 15.8105 8.22239 15.69 8.82858C15.5694 9.43477 15.2718 9.99159 14.8347 10.4286C14.3977 10.8657 13.8409 11.1633 13.2347 11.2839C12.6285 11.4045 12.0001 11.3426 11.4291 11.106C10.8581 10.8695 10.3701 10.469 10.0267 9.95508C9.68329 9.44118 9.50001 8.83699 9.50001 8.21892C9.50001 7.39012 9.82926 6.59527 10.4153 6.00921C11.0014 5.42316 11.7962 5.09392 12.625 5.09392ZM37.6817 34.6974C38.5332 33.5327 39.0456 32.155 39.162 30.7169C39.2785 29.2788 38.9944 27.8366 38.3413 26.5501C37.6882 25.2636 36.6916 24.183 35.462 23.4282C34.2324 22.6735 32.8178 22.2739 31.375 22.2739C29.9322 22.2739 28.5176 22.6735 27.288 23.4282C26.0584 24.183 25.0618 25.2636 24.4087 26.5501C23.7556 27.8366 23.4716 29.2788 23.588 30.7169C23.7044 32.155 24.2168 33.5327 25.0684 34.6974C23.9566 35.2558 22.9246 35.9607 22 36.7931C21.0754 35.9607 20.0435 35.2558 18.9317 34.6974C19.7832 33.5327 20.2956 32.155 20.412 30.7169C20.5285 29.2788 20.2444 27.8366 19.5913 26.5501C18.9382 25.2636 17.9416 24.183 16.712 23.4282C15.4824 22.6735 14.0678 22.2739 12.625 22.2739C11.1822 22.2739 9.76762 22.6735 8.538 23.4282C7.30838 24.183 6.3118 25.2636 5.65871 26.5501C5.00563 27.8366 4.72156 29.2788 4.838 30.7169C4.95443 32.155 5.46683 33.5327 6.31837 34.6974C4.37241 35.6775 2.68079 37.0963 1.37697 38.842C1.00349 39.339 0.842748 39.964 0.930106 40.5796C1.01746 41.1951 1.34577 41.7507 1.84279 42.1242C2.33981 42.4977 2.96484 42.6584 3.58038 42.5711C4.19591 42.4837 4.75154 42.1554 5.12501 41.6584C5.99823 40.4937 7.13068 39.5483 8.43264 38.8972C9.73459 38.2461 11.1703 37.9071 12.626 37.9071C14.0817 37.9071 15.5174 38.2461 16.8193 38.8972C18.1213 39.5483 19.2538 40.4937 20.127 41.6584C20.5002 42.1554 21.0556 42.4837 21.6709 42.5713C22.2863 42.6588 22.9112 42.4983 23.4082 42.1252C23.584 41.9918 23.7404 41.8347 23.8731 41.6584C24.7463 40.4937 25.8787 39.5483 27.1807 38.8972C28.4826 38.2461 29.9183 37.9071 31.374 37.9071C32.8297 37.9071 34.2654 38.2461 35.5674 38.8972C36.8694 39.5483 38.0018 40.4937 38.875 41.6584C39.0581 41.9089 39.2892 42.1206 39.5548 42.2811C39.8204 42.4417 40.1152 42.5478 40.4221 42.5935C40.7291 42.6392 41.042 42.6235 41.3429 42.5473C41.6437 42.471 41.9264 42.3358 42.1745 42.1495C42.4227 41.9632 42.6314 41.7294 42.7885 41.4618C42.9455 41.1941 43.0479 40.898 43.0897 40.5905C43.1314 40.2829 43.1116 39.9702 43.0315 39.6704C42.9514 39.3706 42.8126 39.0897 42.6231 38.8439C41.3199 37.0971 39.6282 35.6775 37.6817 34.6974ZM12.625 26.9689C13.2431 26.9689 13.8473 27.1522 14.3612 27.4956C14.8751 27.839 15.2756 28.327 15.5121 28.898C15.7487 29.4691 15.8105 30.0974 15.69 30.7036C15.5694 31.3098 15.2718 31.8666 14.8347 32.3036C14.3977 32.7407 13.8409 33.0383 13.2347 33.1589C12.6285 33.2795 12.0001 33.2176 11.4291 32.981C10.8581 32.7445 10.3701 32.344 10.0267 31.8301C9.68329 31.3162 9.50001 30.712 9.50001 30.0939C9.50001 29.2651 9.82926 28.4703 10.4153 27.8842C11.0014 27.2982 11.7962 26.9689 12.625 26.9689ZM31.375 26.9689C31.9931 26.9689 32.5973 27.1522 33.1112 27.4956C33.6251 27.839 34.0256 28.327 34.2621 28.898C34.4987 29.4691 34.5605 30.0974 34.44 30.7036C34.3194 31.3098 34.0218 31.8666 33.5847 32.3036C33.1477 32.7407 32.5909 33.0383 31.9847 33.1589C31.3785 33.2795 30.7501 33.2176 30.1791 32.981C29.6081 32.7445 29.1201 32.344 28.7767 31.8301C28.4333 31.3162 28.25 30.712 28.25 30.0939C28.25 29.2651 28.5793 28.4703 29.1653 27.8842C29.7514 27.2982 30.5462 26.9689 31.375 26.9689Z" fill="white"/>
</svg>
